<svg height="363" width="487" viewBox="-11 107 487 363" style="background-color:transparent;" preserveAspectRatio="xMinYMin meet" xmlns:xlink="http://www.w3.org/1999/xlink" xmlns="http://www.w3.org/2000/svg"><g><rect style="fill: #ccccff;fill-opacity: 0;stroke-opacity:1;stroke-width: 2;stroke:#333333;" rx="2" height="72" width="122" y="117" x="78"/><text style="font-weight:Normal; font-size: 12px; text-anchor: middle; font-family: arial,helvetica; fill: #333333;" y="141" x="139">«screen»</text><text style="font-weight:bold; font-size: 12px; text-anchor: middle; font-family: arial,helvetica; fill: #333333;" y="158" x="139">GuestHomePage</text><line style="stroke:#333333;stroke-width:1;stroke-dasharray:none;" y2="172" x2="199" y1="172" x1="79"/></g><g><rect style="fill: #ccccff;fill-opacity: 0;stroke-opacity:1;stroke-width: 2;stroke:#333333;" rx="2" height="140" width="97" y="274" x="139"/><text style="font-weight:Normal; font-size: 12px; text-anchor: middle; font-family: arial,helvetica; fill: #333333;" y="298" x="187">«input form»</text><text style="font-weight:bold; font-size: 12px; text-anchor: middle; font-family: arial,helvetica; fill: #333333;" y="315" x="187">LoginForm</text><line style="stroke:#333333;stroke-width:1;stroke-dasharray:none;" y2="329" x2="235" y1="329" x1="140"/><text style="font-weight:Normal; font-size: 12px; text-anchor: start; font-family: arial,helvetica; fill: #333333;" y="349" x="149">username</text><text style="font-weight:Normal; font-size: 12px; text-anchor: start; font-family: arial,helvetica; fill: #333333;" y="366" x="149">password</text><line style="stroke:#333333;stroke-width:1;stroke-dasharray:none;" y2="380" x2="235" y1="380" x1="140"/><text style="font-weight:Normal; font-size: 12px; text-anchor: start; font-family: arial,helvetica; fill: #333333;" y="400" x="149">submit()</text></g><g><path style="fill:none;stroke:#333333;stroke-width:1;" d="M 151 191 150 223 187 223 187 272"/><path style="fill:rgb(250,250,250);stroke:#333333;stroke-width:1;" d="M 151 191 144.6783 201.1998 150.3508 211.7745 156.6725 201.5746Z"/><text style="font-weight:Normal; font-size: 12px; text-anchor: middle; font-family: arial,helvetica; fill: #333333;" y="256" x="202"/><text style="font-weight:Normal; font-size: 12px; text-anchor: start; font-family: arial,helvetica; fill: #333333;" y="217" x="168"/><text style="font-weight:Normal; font-size: 12px; text-anchor: middle; font-family: arial,helvetica; fill: #333333;" y="204" x="165"/></g><a xlink:href="ddgf"><g><path style="fill:none;stroke:#333333;stroke-width:1;" d="M 216 272 219 153 202 153"/><polyline style="fill:#ffffff;stroke:#333333;stroke-width:1;fill-opacity:0;" points="212,147 202,153 212,159"/><text style="font-weight:Normal; font-size: 12px; text-anchor: middle; font-family: arial,helvetica; fill: #333333;" y="168" x="218"/><text style="font-weight:Normal; font-size: 12px; text-anchor: start; font-family: arial,helvetica; fill: #333333;" y="141" x="219"/><text style="font-weight:Normal; font-size: 12px; text-anchor: middle; font-family: arial,helvetica; fill: #333333;" y="258" x="201"/></g></a><g><rect style="fill: #ccccff;fill-opacity: 0;stroke-opacity:1;stroke-width: 2;stroke:#333333;" rx="2" height="157" width="97" y="274" x="4"/><text style="font-weight:Normal; font-size: 12px; text-anchor: middle; font-family: arial,helvetica; fill: #333333;" y="298" x="52">«input form»</text><text style="font-weight:bold; font-size: 12px; text-anchor: middle; font-family: arial,helvetica; fill: #333333;" y="315" x="52">SignupForm</text><line style="stroke:#333333;stroke-width:1;stroke-dasharray:none;" y2="329" x2="100" y1="329" x1="5"/><text style="font-weight:Normal; font-size: 12px; text-anchor: start; font-family: arial,helvetica; fill: #333333;" y="349" x="14">username</text><text style="font-weight:Normal; font-size: 12px; text-anchor: start; font-family: arial,helvetica; fill: #333333;" y="366" x="14">password</text><text style="font-weight:Normal; font-size: 12px; text-anchor: start; font-family: arial,helvetica; fill: #333333;" y="383" x="14">email</text><line style="stroke:#333333;stroke-width:1;stroke-dasharray:none;" y2="397" x2="100" y1="397" x1="5"/><text style="font-weight:Normal; font-size: 12px; text-anchor: start; font-family: arial,helvetica; fill: #333333;" y="417" x="14">submit()</text></g><g><path style="fill:none;stroke:#333333;stroke-width:1;" d="M 114 191 114 223 58 223 58 272"/><path style="fill:rgb(250,250,250);stroke:#333333;stroke-width:1;" d="M 114 191 108 201.3923 114 211.7846 120 201.3923Z"/><text style="font-weight:Normal; font-size: 12px; text-anchor: middle; font-family: arial,helvetica; fill: #333333;" y="256" x="73"/><text style="font-weight:Normal; font-size: 12px; text-anchor: start; font-family: arial,helvetica; fill: #333333;" y="217" x="86"/><text style="font-weight:Normal; font-size: 12px; text-anchor: middle; font-family: arial,helvetica; fill: #333333;" y="205" x="129"/></g><g transform="matrix(1,0,0,1,-6,-2)"><rect style="fill: #ffffff;fill-opacity: 1;stroke-opacity:0;stroke-width: 1;stroke:%stroke%;" rx="4" height="31" width="44" y="194" x="205"/><text style="font-weight:Normal; font-size: 12px; text-anchor: start; font-family: arial,helvetica; fill: #333333;" y="194" x="205"><tspan dy="11" x="205">submit </tspan><tspan dy="17" x="205">ERROR</tspan></text></g><g><path style="fill:none;stroke:#333333;stroke-width:1;" d="M 33 272 34 153 76 153"/><polyline style="fill:#ffffff;stroke:#333333;stroke-width:1;fill-opacity:0;" points="65,159 76,153 65,147"/><text style="font-weight:Normal; font-size: 12px; text-anchor: middle; font-family: arial,helvetica; fill: #333333;" y="138" x="60"/><text style="font-weight:Normal; font-size: 12px; text-anchor: start; font-family: arial,helvetica; fill: #333333;" y="141" x="34"/><text style="font-weight:Normal; font-size: 12px; text-anchor: middle; font-family: arial,helvetica; fill: #333333;" y="258" x="18"/></g><g transform="matrix(1,0,0,1,0,-2)"><rect style="fill: #ffffff;fill-opacity: 1;stroke-opacity:0;stroke-width: 1;stroke:%stroke%;" rx="4" height="31" width="44" y="194" x="11"/><text style="font-weight:Normal; font-size: 12px; text-anchor: start; font-family: arial,helvetica; fill: #333333;" y="194" x="11"><tspan dy="11" x="11">submit</tspan><tspan dy="17" x="11">ERROR</tspan></text></g><g><rect style="fill: #ccccff;fill-opacity: 0;stroke-opacity:1;stroke-width: 2;stroke:#333333;" rx="2" height="106" width="119" y="148" x="342"/><text style="font-weight:Normal; font-size: 12px; text-anchor: middle; font-family: arial,helvetica; fill: #333333;" y="172" x="401">«screen»</text><text style="font-weight:bold; font-size: 12px; text-anchor: middle; font-family: arial,helvetica; fill: #333333;" y="189" x="401">UserHomePage</text><line style="stroke:#333333;stroke-width:1;stroke-dasharray:none;" y2="203" x2="460" y1="203" x1="343"/><line style="stroke:#333333;stroke-width:1;stroke-dasharray:none;" y2="220" x2="460" y1="220" x1="343"/><text style="font-weight:Normal; font-size: 12px; text-anchor: start; font-family: arial,helvetica; fill: #333333;" y="240" x="352">logOut()</text></g><g><path style="fill:none;stroke:#333333;stroke-width:1;" d="M 340 201 283 137 202 138"/><polyline style="fill:#ffffff;stroke:#333333;stroke-width:1;fill-opacity:0;" points="212,131 202,138 212,143"/><text style="font-weight:Normal; font-size: 12px; text-anchor: middle; font-family: arial,helvetica; fill: #333333;" y="151" x="217"/><text style="font-weight:Normal; font-size: 12px; text-anchor: start; font-family: arial,helvetica; fill: #333333;" y="125" x="283"/><text style="font-weight:Normal; font-size: 12px; text-anchor: middle; font-family: arial,helvetica; fill: #333333;" y="200" x="319"/></g><g><path style="fill:none;stroke:#333333;stroke-width:1;" d="M 187 416 187 438 270 439 372 256"/><polyline style="fill:#ffffff;stroke:#333333;stroke-width:1;fill-opacity:0;" points="372,267 372,256 361,262"/><text style="font-weight:Normal; font-size: 12px; text-anchor: middle; font-family: arial,helvetica; fill: #333333;" y="262" x="351"/><text style="font-weight:Normal; font-size: 12px; text-anchor: start; font-family: arial,helvetica; fill: #333333;" y="438" x="228"/><text style="font-weight:Normal; font-size: 12px; text-anchor: middle; font-family: arial,helvetica; fill: #333333;" y="430" x="202"/></g><g transform="matrix(1,0,0,1,-49,3)"><rect style="fill: #ffffff;fill-opacity: 1;stroke-opacity:0;stroke-width: 1;stroke:%stroke%;" rx="4" height="14" width="45" y="119" x="281"/><text style="font-weight:Normal; font-size: 12px; text-anchor: start; font-family: arial,helvetica; fill: #333333;" y="119" x="281"><tspan dy="11" x="281">logOut()</tspan></text></g><g><path style="fill:none;stroke:#333333;stroke-width:1;" d="M 52 433 52 454 318 455 425 256"/><polyline style="fill:#ffffff;stroke:#333333;stroke-width:1;fill-opacity:0;" points="425,267 425,256 414,262"/><text style="font-weight:Normal; font-size: 12px; text-anchor: middle; font-family: arial,helvetica; fill: #333333;" y="263" x="404"/><text style="font-weight:Normal; font-size: 12px; text-anchor: start; font-family: arial,helvetica; fill: #333333;" y="454" x="185"/><text style="font-weight:Normal; font-size: 12px; text-anchor: middle; font-family: arial,helvetica; fill: #333333;" y="447" x="67"/></g><g transform="matrix(1,0,0,1,17,-38)"><rect style="fill: #ffffff;fill-opacity: 1;stroke-opacity:0;stroke-width: 1;stroke:%stroke%;" rx="4" height="14" width="83" y="411" x="308"/><text style="font-weight:Normal; font-size: 12px; text-anchor: start; font-family: arial,helvetica; fill: #333333;" y="411" x="308"><tspan dy="11" x="308">registration OK</tspan></text></g><g transform="matrix(1,0,0,1,43,-70)"><rect style="fill: #ffffff;fill-opacity: 1;stroke-opacity:0;stroke-width: 1;stroke:%stroke%;" rx="4" height="14" width="47" y="364" x="283"/><text style="font-weight:Normal; font-size: 12px; text-anchor: start; font-family: arial,helvetica; fill: #333333;" y="364" x="283"><tspan dy="11" x="283">login OK</tspan></text></g></svg>