<svg height="521" width="601" viewBox="-72 -586 601 521" style="background-color:transparent;" preserveAspectRatio="xMinYMin meet" xmlns:xlink="http://www.w3.org/1999/xlink" xmlns="http://www.w3.org/2000/svg"><g><g transform="matrix(11.42,0,0,9.58,-57,-576)"><path style="fill: none;stroke:#333333;stroke-width:0.17513134851138354;" d="m 0.25 0.25 49.5 0 0 49.5-49.5 0z"/><path style="fill: none;stroke:#333333;stroke-width:0.17513134851138354;" d="m 0.25 0.25 49.5 0 0 5.9454-49.5 0z"/><path style="fill: none;stroke:#333333;stroke-width:0.17513134851138354;" d="m 10.4901 2.3082 37.3395 0 0 1.7919-37.3395 0z"/><path style="fill: none;stroke:#333333;stroke-width:0.17513134851138354;" d="m 2.5500 2.1704-1.1027 1.0337 1.1027 0.896"/><path style="fill:none;stroke:#333333;stroke-width:0.17513134851138354;" d="m 1.5851 3.2041 1.6541 0"/><path style="fill: none;stroke:#333333;stroke-width:0.17513134851138354;" d="m 4.4811 2.1704 1.1027 1.0337-1.1027 0.896"/><path style="fill:none;stroke:#333333;stroke-width:0.17513134851138354;" d="m 5.4459 3.2041-1.6541 0"/><path style="fill: none;stroke:#333333;stroke-width:0.17513134851138354;" d="m 8.7806 3.7879c-0.1832 0.1832-0.4364 0.2966-0.7159 0.2966-0.5592 0-1.0125-0.4533-1.0125-1.0125 0-0.5593 0.4533-1.0125 1.0125-1.0125 0.2796 0 0.5885 0.1691 0.7718 0.4639"/><path style="fill:none;stroke:#333333;stroke-width:0.17513134851138354;" d="m 8.8868 2.8021-0.4880-0.2543 0.4642-0.2954z"/></g></g><g><rect style="fill: #000000;fill-opacity: 0;stroke-opacity:0;stroke-width: 1;stroke:%stroke%;" rx="4" height="61" width="178" y="-492" x="-34"/><text style="font-weight:Normal; font-size: 12px; text-anchor: start; font-family: arial,helvetica; fill: #333333;" y="-471" x="-34"><tspan x="-34" font-weight="bold" font-size="36" dy="26">Meteocal</tspan></text></g><g><g transform="matrix(1,0,0,1,374,-358)"><path style="fill:none;stroke:#333333;stroke-width:2;" d="m 1 0c-0.3333 0-0.6667 0-1 0"/></g></g><g><rect style="fill: #ccccff;fill-opacity: 0;stroke-opacity:1;stroke-width: 2;stroke:#333333;" rx="9" height="35" width="94" y="-235" x="287"/><text style="font-weight:bold; font-size: 12px; text-anchor: middle; font-family: arial,helvetica; fill: #333333;" y="-211" x="334"/></g><g><rect style="fill: #ccccff;fill-opacity: 0;stroke-opacity:1;stroke-width: 2;stroke:#333333;" rx="9" height="35" width="95" y="-180" x="-14"/><text style="font-weight:bold; font-size: 12px; text-anchor: middle; font-family: arial,helvetica; fill: #333333;" y="-156" x="33"/></g><g><rect style="fill: #ccccff;fill-opacity: 0;stroke-opacity:1;stroke-width: 2;stroke:#333333;" rx="9" height="38" width="180" y="-359" x="-18"/><text style="font-weight:bold; font-size: 12px; text-anchor: middle; font-family: arial,helvetica; fill: #333333;" y="-335" x="72"/></g><g><rect style="fill: #ccccff;fill-opacity: 0;stroke-opacity:1;stroke-width: 2;stroke:#333333;" rx="9" height="35" width="175" y="-295" x="-15"/><text style="font-weight:bold; font-size: 12px; text-anchor: middle; font-family: arial,helvetica; fill: #333333;" y="-271" x="72"/></g><g><rect style="fill: #ccccff;fill-opacity: 0;stroke-opacity:1;stroke-width: 2;stroke:#333333;" rx="9" height="34" width="177" y="-236" x="-16"/><text style="font-weight:bold; font-size: 12px; text-anchor: middle; font-family: arial,helvetica; fill: #333333;" y="-212" x="72"/></g><g><rect style="fill: #ccccff;fill-opacity: 0;stroke-opacity:1;stroke-width: 2;stroke:#333333;" rx="9" height="37" width="173" y="-358" x="287"/><text style="font-weight:bold; font-size: 12px; text-anchor: middle; font-family: arial,helvetica; fill: #333333;" y="-334" x="373"/></g><g><g transform="matrix(1,0,0,1,302,-350)"><path style="fill:none;stroke:#333333;stroke-width:2;" d="m 0 11c 0 6.8795 14.1017-1.8983 15-1c 2.1575 2.1575-2.3175 9.4392 5 7c 0.9431-0.3144 7.7150-11.5700 9-9c 0.6830 1.3660-1.6835 10.1223 3 7c 3.2430-2.1620 6.0622-15 10-15c 0.6957 0-1.0403 11.9597 0 13c 2.0488 2.0488 10.2278-6.3167 11-4c 1.4191 4.2575-1.4364 11 4 11c 2.6564 0 5.7111-1 7-1"/></g></g><g><rect style="fill: #ccccff;fill-opacity: 0;stroke-opacity:1;stroke-width: 2;stroke:#333333;" rx="9" height="37" width="173" y="-296" x="287"/><text style="font-weight:bold; font-size: 12px; text-anchor: middle; font-family: arial,helvetica; fill: #333333;" y="-272" x="373"/></g><g><g transform="matrix(0.4444444444444444,0,0,0.4827586206896552,341,-286)"><path style="fill:none;stroke:#333333;stroke-width:4.142857142857142;" d="m 6 29c 0-5.6258 5.5115-11.0459 7-17c 0.8681-3.4725-0.6111-9.3889 2-12c 0.1387-0.1387 4.0817 8.0817 5 9c 3.2803 3.2803 6.7012 7.7012 10 11c 1.0142 1.0142 0.1104 7 2 7c 0.8497 0 1.8962 1.5519 1 2c-5.1348 2.5674-16.8962-7.4481-20-9c-4.2432-2.1216-8.3905-5.1952-12-7c-0.4216-0.2108-1.4216-0.7892-1-1c 6.8084-3.4042 20.1500-1 28-1c 1.8320 0 8-1 8-1c 0 0-3.4720 4.2360-5 5c-5.3897 2.6948-11.3033 4.3033-15 8c-1.3143 1.3143-11 2.4525-11 5"/></g></g><g><g transform="matrix(0.34615384615384615,0,0,0.2826086956521739,398,-284)"><path style="fill:none;stroke:#333333;stroke-width:5.777777777777778;" d="m 9 44c 2.4454 0 4.4618-9.2058 5-11c 2.8189-9.3963 3.0132-19.0397 6-28c 0.3959-1.1876-0.7989-4.2011 0-5c 0.7081-0.7081 1.8438 0.7657 2 1c 2.7756 4.1633 4.6728 11.6728 8 15c 3.4991 3.4991 8.7971 9.7294 12 14c 2.0199 2.6932 2.6446 7.6446 5 10c 0.4549 0.4549 5 4.7000 5 6c 0 1-2.0513 0.3162-3 0c-4.3357-1.4452-8.8603-4.1601-13-6c-1.7761-0.7894-3.2616-2.1308-5-3c-5.1686-2.5843-31-17.5548-31-21c 0-1 2 0 3 0c 2.2226 0 4.8717 0.3040 7 0c 6.8281-0.9755 11.8315-3 19-3c 4 0 8 0 12 0c 1.7951 0 5-3.7950 5-2c 0 2.6018-5.7161 4.7161-7 6c-3.8722 3.8722-27 20.3210-27 22"/></g></g><g><g transform="matrix(0.4473684210526316,0,0,0.5217391304347826,370,-283)"><path style="fill:none;stroke:#333333;stroke-width:3.8333333333333335;" d="m 3 23c 2.3457-4.6915 5.4802-8.4407 7-13c 0.7305-2.1915 0.6792-6.6792 2-8c 0.5271-0.5271 0.3333-2.3333 1-2c 1.3074 0.6537 16 16.6092 16 18c 0 1.0294 1.7451 1.2549 1 2c-3.6349 3.6349-18.4328-9.1443-21-10c-2.5123-0.8374-4.1292-2.1292-6-4c-0.7071-0.7071-4 0-3 0c 9.5106 0 19.1564-0.9479 28 2c 1.8604 0.6201 8.6240-1.3760 10 0c 0.3105 0.3105-8.1038 7.4026-9 8c-8.2611 5.5074-18.8085 6-28 6"/></g></g><g><g transform="matrix(0.25,0,0,0.21428571428571427,315,-285)"><path style="fill:none;stroke:#333333;stroke-width:8;" d="m 6 45c 0-5.1800 5.6371-13.2741 8-18c 2.3634-4.7268 9.4673-24.4673 12-27c 0.2357-0.2357 0.8151-0.2773 1 0c 3.7199 5.5799 4.0207 13.0621 6 19c 3.5101 10.5304 9.359 21.718 14 31c 0.6254 1.2508 3 6 3 6c 0 0-2.0961-0.4577-3-1c-4.1695-2.5017-7.6400-4.8200-12-7c-11.3353-5.6676-21.0383-17.0191-31-22c-1.3205-0.6602-5.8015-5.1985-4-7c 1.9717-1.9717 10.1290-1 13-1c 10.7996 0 30.1318-1.8682 37 5c 0.4520 0.4520 10 0 10 0c 0 0-12.1342 2.6007-14 4c-10.1570 7.6178-22.0656 11.0656-30 19c-2.1667 2.1667-9.8333-1.1667-12 1c-0.7384 0.7384-3.9026 3.9026-3 3c 2.0150-2.0150 0.4541-7 6-7"/></g></g><g><path style="fill:none;stroke:#333333;stroke-width:1;" d="M 409-275C 409-274.5 408-274.5 408-274"/><polyline style="fill:#ffffff;stroke:#333333;stroke-width:1;fill-opacity:0;" points="403,-284 408,-274 415,-283"/><text style="font-weight:Normal; font-size: 12px; text-anchor: middle; font-family: arial,helvetica; fill: #333333;" y="-275" x="429"/><text style="font-weight:Normal; font-size: 12px; text-anchor: start; font-family: arial,helvetica; fill: #333333;" y="-274" x="408"/><text style="font-weight:Normal; font-size: 12px; text-anchor: middle; font-family: arial,helvetica; fill: #333333;" y="-255" x="410"/></g><g><rect style="fill: #000000;fill-opacity: 0;stroke-opacity:0;stroke-width: 1;stroke:%stroke%;" rx="4" height="35" width="56" y="-180" x="3"/><text style="font-weight:Normal; font-size: 12px; text-anchor: start; font-family: arial,helvetica; fill: #333333;" y="-159" x="3"><tspan x="3" font-weight="bold" font-size="12" dy="2">Sign up</tspan></text></g><g><rect style="fill: #000000;fill-opacity: 0;stroke-opacity:0;stroke-width: 1;stroke:%stroke%;" rx="4" height="35" width="45" y="-235" x="305"/><text style="font-weight:Normal; font-size: 12px; text-anchor: start; font-family: arial,helvetica; fill: #333333;" y="-214" x="305"><tspan x="305" font-weight="bold" font-size="12" dy="2">Log in</tspan></text></g><g><rect style="fill: #000000;fill-opacity: 0;stroke-opacity:0;stroke-width: 1;stroke:%stroke%;" rx="4" height="35" width="102" y="-457" x="397"/><text style="font-weight:Normal; font-size: 12px; text-anchor: start; font-family: arial,helvetica; fill: #333333;" y="-436" x="397"><tspan font-weight="bold" x="397">Already a user  ?</tspan></text></g><g><path style="fill:none;stroke:#333333;stroke-width:1;" d="M 438-420C 438-420 450.8199-404.7340 446-399 432.4552-382.8864 402.2661-421.4623 384-411 368.3566-402.0399 366-360 366-360"/><polyline style="fill:#ffffff;stroke:#333333;stroke-width:1;fill-opacity:0;" points="360,-370 366,-360 372,-369"/><text style="font-weight:Normal; font-size: 12px; text-anchor: middle; font-family: arial,helvetica; fill: #333333;" y="-371" x="385"/><text style="font-weight:Normal; font-size: 12px; text-anchor: start; font-family: arial,helvetica; fill: #333333;" y="-411" x="415"/><text style="font-weight:Normal; font-size: 12px; text-anchor: middle; font-family: arial,helvetica; fill: #333333;" y="-412" x="456"/></g></svg>