<svg height="789" width="710" viewBox="425 42 710 789" style="background-color:transparent;" preserveAspectRatio="xMinYMin meet" xmlns:xlink="http://www.w3.org/1999/xlink" xmlns="http://www.w3.org/2000/svg"><g><rect style="fill: #ccccff;fill-opacity: 0;stroke-opacity:1;stroke-width: 2;stroke:#333333;" rx="2" height="140" width="163" y="98" x="732"/><text style="font-weight:Normal; font-size: 12px; text-anchor: middle; font-family: arial,helvetica; fill: #333333;" y="122" x="813">«screen»</text><text style="font-weight:bold; font-size: 12px; text-anchor: middle; font-family: arial,helvetica; fill: #333333;" y="139" x="813">EventsPage</text><line style="stroke:#333333;stroke-width:1;stroke-dasharray:none;" y2="153" x2="894" y1="153" x1="733"/><line style="stroke:#333333;stroke-width:1;stroke-dasharray:none;" y2="170" x2="894" y1="170" x1="733"/><text style="font-weight:Normal; font-size: 12px; text-anchor: start; font-family: arial,helvetica; fill: #333333;" y="190" x="742">filterOwnEvents()</text><text style="font-weight:Normal; font-size: 12px; text-anchor: start; font-family: arial,helvetica; fill: #333333;" y="207" x="742">filterParticipatingEvents()</text><text style="font-weight:Normal; font-size: 12px; text-anchor: start; font-family: arial,helvetica; fill: #333333;" y="224" x="742">createNewEvent()</text></g><g><rect style="fill: #ccccff;fill-opacity: 0;stroke-opacity:1;stroke-width: 2;stroke:#333333;" rx="2" height="106" width="143" y="100" x="441"/><text style="font-weight:Normal; font-size: 12px; text-anchor: middle; font-family: arial,helvetica; fill: #333333;" y="124" x="512">«screen component»</text><text style="font-weight:bold; font-size: 12px; text-anchor: middle; font-family: arial,helvetica; fill: #333333;" y="141" x="512">EventsList</text><line style="stroke:#333333;stroke-width:1;stroke-dasharray:none;" y2="155" x2="583" y1="155" x1="442"/><line style="stroke:#333333;stroke-width:1;stroke-dasharray:none;" y2="172" x2="583" y1="172" x1="442"/><text style="font-weight:Normal; font-size: 12px; text-anchor: start; font-family: arial,helvetica; fill: #333333;" y="192" x="451">showEventDetail()</text></g><g><rect style="fill: #ccccff;fill-opacity: 0;stroke-opacity:1;stroke-width: 2;stroke:#333333;" rx="2" height="106" width="143" y="307" x="743"/><text style="font-weight:Normal; font-size: 12px; text-anchor: middle; font-family: arial,helvetica; fill: #333333;" y="331" x="814">«screen component»</text><text style="font-weight:bold; font-size: 12px; text-anchor: middle; font-family: arial,helvetica; fill: #333333;" y="348" x="814">SingleEventView</text><line style="stroke:#333333;stroke-width:1;stroke-dasharray:none;" y2="362" x2="885" y1="362" x1="744"/><text style="font-weight:Normal; font-size: 12px; text-anchor: start; font-family: arial,helvetica; fill: #333333;" y="382" x="753">sessionMesssage</text><line style="stroke:#333333;stroke-width:1;stroke-dasharray:none;" y2="396" x2="885" y1="396" x1="744"/></g><g><rect style="fill: #ccccff;fill-opacity: 0;stroke-opacity:1;stroke-width: 2;stroke:#333333;" rx="2" height="259" width="97" y="521" x="991"/><text style="font-weight:Normal; font-size: 12px; text-anchor: middle; font-family: arial,helvetica; fill: #333333;" y="545" x="1039">«input form»</text><text style="font-weight:bold; font-size: 12px; text-anchor: middle; font-family: arial,helvetica; fill: #333333;" y="562" x="1039">EventForm</text><line style="stroke:#333333;stroke-width:1;stroke-dasharray:none;" y2="576" x2="1087" y1="576" x1="992"/><text style="font-weight:Normal; font-size: 12px; text-anchor: start; font-family: arial,helvetica; fill: #333333;" y="596" x="1001">title</text><text style="font-weight:Normal; font-size: 12px; text-anchor: start; font-family: arial,helvetica; fill: #333333;" y="613" x="1001">description</text><text style="font-weight:Normal; font-size: 12px; text-anchor: start; font-family: arial,helvetica; fill: #333333;" y="630" x="1001">startTime</text><text style="font-weight:Normal; font-size: 12px; text-anchor: start; font-family: arial,helvetica; fill: #333333;" y="647" x="1001">endTime</text><text style="font-weight:Normal; font-size: 12px; text-anchor: start; font-family: arial,helvetica; fill: #333333;" y="664" x="1001">isOutdoor</text><text style="font-weight:Normal; font-size: 12px; text-anchor: start; font-family: arial,helvetica; fill: #333333;" y="681" x="1001">address</text><text style="font-weight:Normal; font-size: 12px; text-anchor: start; font-family: arial,helvetica; fill: #333333;" y="698" x="1001">latutide</text><text style="font-weight:Normal; font-size: 12px; text-anchor: start; font-family: arial,helvetica; fill: #333333;" y="715" x="1001">longitude</text><text style="font-weight:Normal; font-size: 12px; text-anchor: start; font-family: arial,helvetica; fill: #333333;" y="732" x="1001">invitedUsers</text><line style="stroke:#333333;stroke-width:1;stroke-dasharray:none;" y2="746" x2="1087" y1="746" x1="992"/><text style="font-weight:Normal; font-size: 12px; text-anchor: start; font-family: arial,helvetica; fill: #333333;" y="766" x="1001">submit()</text></g><g><rect style="fill: #ccccff;fill-opacity: 0;stroke-opacity:1;stroke-width: 2;stroke:#333333;" rx="2" height="276" width="143" y="522" x="495"/><text style="font-weight:Normal; font-size: 12px; text-anchor: middle; font-family: arial,helvetica; fill: #333333;" y="546" x="566">«screen component»</text><text style="font-weight:bold; font-size: 12px; text-anchor: middle; font-family: arial,helvetica; fill: #333333;" y="563" x="566">EventDetail</text><line style="stroke:#333333;stroke-width:1;stroke-dasharray:none;" y2="577" x2="637" y1="577" x1="496"/><text style="font-weight:Normal; font-size: 12px; text-anchor: start; font-family: arial,helvetica; fill: #333333;" y="597" x="505">title</text><text style="font-weight:Normal; font-size: 12px; text-anchor: start; font-family: arial,helvetica; fill: #333333;" y="614" x="505">description</text><text style="font-weight:Normal; font-size: 12px; text-anchor: start; font-family: arial,helvetica; fill: #333333;" y="631" x="505">startTime</text><text style="font-weight:Normal; font-size: 12px; text-anchor: start; font-family: arial,helvetica; fill: #333333;" y="648" x="505">duration</text><text style="font-weight:Normal; font-size: 12px; text-anchor: start; font-family: arial,helvetica; fill: #333333;" y="665" x="505">address</text><text style="font-weight:Normal; font-size: 12px; text-anchor: start; font-family: arial,helvetica; fill: #333333;" y="682" x="505">invitedUsers</text><text style="font-weight:Normal; font-size: 12px; text-anchor: start; font-family: arial,helvetica; fill: #333333;" y="699" x="505">weatherInformation</text><line style="stroke:#333333;stroke-width:1;stroke-dasharray:none;" y2="713" x2="637" y1="713" x1="496"/><text style="font-weight:Normal; font-size: 12px; text-anchor: start; font-family: arial,helvetica; fill: #333333;" y="733" x="505">◽ updateEvent()</text><text style="font-weight:Normal; font-size: 12px; text-anchor: start; font-family: arial,helvetica; fill: #333333;" y="750" x="505">◽ deleteEvent()</text><text style="font-weight:Normal; font-size: 12px; text-anchor: start; font-family: arial,helvetica; fill: #333333;" y="767" x="505">◽ inviteUsers()</text><text style="font-weight:Normal; font-size: 12px; text-anchor: start; font-family: arial,helvetica; fill: #333333;" y="784" x="505">◾ unParticipate()</text></g><g><rect style="fill: #ccccff;fill-opacity: 0;stroke-opacity:1;stroke-width: 2;stroke:#333333;" rx="2" height="123" width="97" y="522" x="766"/><text style="font-weight:Normal; font-size: 12px; text-anchor: middle; font-family: arial,helvetica; fill: #333333;" y="546" x="814">«input form»</text><text style="font-weight:bold; font-size: 12px; text-anchor: middle; font-family: arial,helvetica; fill: #333333;" y="563" x="814">InviteForm</text><line style="stroke:#333333;stroke-width:1;stroke-dasharray:none;" y2="577" x2="862" y1="577" x1="767"/><text style="font-weight:Normal; font-size: 12px; text-anchor: start; font-family: arial,helvetica; fill: #333333;" y="597" x="776">username</text><line style="stroke:#333333;stroke-width:1;stroke-dasharray:none;" y2="611" x2="862" y1="611" x1="767"/><text style="font-weight:Normal; font-size: 12px; text-anchor: start; font-family: arial,helvetica; fill: #333333;" y="631" x="776">submit()</text></g><g><path style="fill:none;stroke:#333333;stroke-width:1;" d="M 730 123 586 123"/><polyline style="fill:#ffffff;stroke:#333333;stroke-width:1;fill-opacity:0;" points="596,117 586,123 596,129"/><text style="font-weight:Normal; font-size: 12px; text-anchor: middle; font-family: arial,helvetica; fill: #333333;" y="138" x="602"/><text style="font-weight:Normal; font-size: 12px; text-anchor: start; font-family: arial,helvetica; fill: #333333;" y="117" x="658"/><text style="font-weight:Normal; font-size: 12px; text-anchor: middle; font-family: arial,helvetica; fill: #333333;" y="138" x="716"/></g><g><path style="fill:none;stroke:#333333;stroke-width:1;" d="M 730 160 586 160"/><polyline style="fill:#ffffff;stroke:#333333;stroke-width:1;fill-opacity:0;" points="596,154 586,160 596,166"/><text style="font-weight:Normal; font-size: 12px; text-anchor: middle; font-family: arial,helvetica; fill: #333333;" y="175" x="602"/><text style="font-weight:Normal; font-size: 12px; text-anchor: start; font-family: arial,helvetica; fill: #333333;" y="154" x="658"/><text style="font-weight:Normal; font-size: 12px; text-anchor: middle; font-family: arial,helvetica; fill: #333333;" y="175" x="716"/></g><g><rect style="fill: #ffffff;fill-opacity: 1;stroke-opacity:0;stroke-width: 1;stroke:%stroke%;" rx="4" height="14" width="129" y="143" x="601"/><text style="font-weight:Normal; font-size: 12px; text-anchor: start; font-family: arial,helvetica; fill: #333333;" y="143" x="601"><tspan dy="11" x="601">filterParticipatingEvents()</tspan></text></g><g><path style="fill:none;stroke:#333333;stroke-width:1;" d="M 730 189 586 189"/><path style="fill:rgb(250,250,250);stroke:#333333;stroke-width:1;" d="M 730 189 719.6077 183 709.2154 189 719.6077 195Z"/><text style="font-weight:Normal; font-size: 12px; text-anchor: middle; font-family: arial,helvetica; fill: #333333;" y="204" x="602"/><text style="font-weight:Normal; font-size: 12px; text-anchor: start; font-family: arial,helvetica; fill: #333333;" y="183" x="658"/><text style="font-weight:Normal; font-size: 12px; text-anchor: middle; font-family: arial,helvetica; fill: #333333;" y="204" x="716"/></g><g><rect style="fill: #ffffff;fill-opacity: 1;stroke-opacity:0;stroke-width: 1;stroke:%stroke%;" rx="4" height="14" width="90" y="104" x="618"/><text style="font-weight:Normal; font-size: 12px; text-anchor: start; font-family: arial,helvetica; fill: #333333;" y="104" x="618"><tspan dy="11" x="618">filterOwnEvents()</tspan></text></g><g><path style="fill:none;stroke:#333333;stroke-width:1;" d="M 818 240 818 305"/><path style="fill:rgb(250,250,250);stroke:#333333;stroke-width:1;" d="M 818 240 812 250.3923 818 260.7846 824 250.3923Z"/><text style="font-weight:Normal; font-size: 12px; text-anchor: middle; font-family: arial,helvetica; fill: #333333;" y="289" x="833"/><text style="font-weight:Normal; font-size: 12px; text-anchor: start; font-family: arial,helvetica; fill: #333333;" y="272" x="818"/><text style="font-weight:Normal; font-size: 12px; text-anchor: middle; font-family: arial,helvetica; fill: #333333;" y="254" x="833"/></g><g><path style="fill:none;stroke:#333333;stroke-width:1;" d="M 753 415 752 490 590 492 566 520"/><path style="fill:rgb(250,250,250);stroke:#333333;stroke-width:1;" d="M 753 415 746.8620 425.3114 752.7229 435.7828 758.8609 425.4714Z"/><text style="font-weight:Normal; font-size: 12px; text-anchor: middle; font-family: arial,helvetica; fill: #333333;" y="516" x="587"/><text style="font-weight:Normal; font-size: 12px; text-anchor: start; font-family: arial,helvetica; fill: #333333;" y="491" x="671"/><text style="font-weight:Normal; font-size: 12px; text-anchor: middle; font-family: arial,helvetica; fill: #333333;" y="428" x="767"/></g><g><path style="fill:none;stroke:#333333;stroke-width:1;" d="M 867 415 867 489 1007 489 1039 519"/><path style="fill:rgb(250,250,250);stroke:#333333;stroke-width:1;" d="M 867 415 861 425.3923 867 435.7846 873 425.3923Z"/><text style="font-weight:Normal; font-size: 12px; text-anchor: middle; font-family: arial,helvetica; fill: #333333;" y="498" x="1037"/><text style="font-weight:Normal; font-size: 12px; text-anchor: start; font-family: arial,helvetica; fill: #333333;" y="483" x="937"/><text style="font-weight:Normal; font-size: 12px; text-anchor: middle; font-family: arial,helvetica; fill: #333333;" y="429" x="882"/></g><g><path style="fill:none;stroke:#333333;stroke-width:1;" d="M 549 520 550 420 550 360 741 360"/><polyline style="fill:#ffffff;stroke:#333333;stroke-width:1;fill-opacity:0;" points="730,366 741,360 730,354"/><text style="font-weight:Normal; font-size: 12px; text-anchor: middle; font-family: arial,helvetica; fill: #333333;" y="345" x="725"/><text style="font-weight:Normal; font-size: 12px; text-anchor: start; font-family: arial,helvetica; fill: #333333;" y="384" x="550"/><text style="font-weight:Normal; font-size: 12px; text-anchor: middle; font-family: arial,helvetica; fill: #333333;" y="506" x="534"/></g><g><rect style="fill: #ffffff;fill-opacity: 1;stroke-opacity:0;stroke-width: 1;stroke:%stroke%;" rx="4" height="31" width="78" y="435" x="514"/><text style="font-weight:Normal; font-size: 12px; text-anchor: start; font-family: arial,helvetica; fill: #333333;" y="435" x="514"><tspan dy="11" x="514">deleteEvent()  / </tspan><tspan dy="17" x="514">unParticipate()</tspan></text></g><g><path style="fill:none;stroke:#333333;stroke-width:1;" d="M 640 742 989 743"/><polyline style="fill:#ffffff;stroke:#333333;stroke-width:1;fill-opacity:0;" points="978,748 989,743 978,736"/><text style="font-weight:Normal; font-size: 12px; text-anchor: middle; font-family: arial,helvetica; fill: #333333;" y="728" x="973"/><text style="font-weight:Normal; font-size: 12px; text-anchor: start; font-family: arial,helvetica; fill: #333333;" y="742" x="814"/><text style="font-weight:Normal; font-size: 12px; text-anchor: middle; font-family: arial,helvetica; fill: #333333;" y="727" x="653"/></g><g><rect style="fill: #ffffff;fill-opacity: 1;stroke-opacity:0;stroke-width: 1;stroke:%stroke%;" rx="4" height="14" width="72" y="721" x="778"/><text style="font-weight:Normal; font-size: 12px; text-anchor: start; font-family: arial,helvetica; fill: #333333;" y="721" x="778"><tspan dy="11" x="778">updateEvent()</tspan></text></g><g><path style="fill:none;stroke:#333333;stroke-width:1;" d="M 640 611 764 612"/><polyline style="fill:#ffffff;stroke:#333333;stroke-width:1;fill-opacity:0;" points="753,617 764,612 753,605"/><text style="font-weight:Normal; font-size: 12px; text-anchor: middle; font-family: arial,helvetica; fill: #333333;" y="597" x="748"/><text style="font-weight:Normal; font-size: 12px; text-anchor: start; font-family: arial,helvetica; fill: #333333;" y="611" x="702"/><text style="font-weight:Normal; font-size: 12px; text-anchor: middle; font-family: arial,helvetica; fill: #333333;" y="596" x="653"/></g><g><path style="fill:none;stroke:#333333;stroke-width:1;" d="M 814 520C 814 469 814 469 814 418"/><polyline style="fill:#ffffff;stroke:#333333;stroke-width:1;fill-opacity:0;" points="820,428 814,418 808,428"/><text style="font-weight:Normal; font-size: 12px; text-anchor: middle; font-family: arial,helvetica; fill: #333333;" y="434" x="799"/><text style="font-weight:Normal; font-size: 12px; text-anchor: start; font-family: arial,helvetica; fill: #333333;" y="469" x="814"/><text style="font-weight:Normal; font-size: 12px; text-anchor: middle; font-family: arial,helvetica; fill: #333333;" y="506" x="799"/></g><g><rect style="fill: #ffffff;fill-opacity: 1;stroke-opacity:0;stroke-width: 1;stroke:%stroke%;" rx="4" height="14" width="56" y="453" x="786"/><text style="font-weight:Normal; font-size: 12px; text-anchor: start; font-family: arial,helvetica; fill: #333333;" y="453" x="786"><tspan dy="11" x="786">submit OK</tspan></text></g><g><rect style="fill: #ffffff;fill-opacity: 1;stroke-opacity:0;stroke-width: 1;stroke:%stroke%;" rx="4" height="14" width="65" y="587" x="669"/><text style="font-weight:Normal; font-size: 12px; text-anchor: start; font-family: arial,helvetica; fill: #333333;" y="587" x="669"><tspan dy="11" x="669">inviteUsers()</tspan></text></g><g><path style="fill:none;stroke:#333333;stroke-width:1;" d="M 640 562 764 562"/><path style="fill:rgb(250,250,250);stroke:#333333;stroke-width:1;" d="M 640 562 650.3923 568 660.7846 562 650.3923 556Z"/><text style="font-weight:Normal; font-size: 12px; text-anchor: middle; font-family: arial,helvetica; fill: #333333;" y="547" x="748"/><text style="font-weight:Normal; font-size: 12px; text-anchor: start; font-family: arial,helvetica; fill: #333333;" y="556" x="702"/><text style="font-weight:Normal; font-size: 12px; text-anchor: middle; font-family: arial,helvetica; fill: #333333;" y="547" x="654"/></g><g><path style="fill:none;stroke:#333333;stroke-width:1;" d="M 989 566 865 566"/><path style="fill:rgb(250,250,250);stroke:#333333;stroke-width:1;" d="M 989 566 978.6077 560 968.2154 566 978.6077 572Z"/><text style="font-weight:Normal; font-size: 12px; text-anchor: middle; font-family: arial,helvetica; fill: #333333;" y="581" x="881"/><text style="font-weight:Normal; font-size: 12px; text-anchor: start; font-family: arial,helvetica; fill: #333333;" y="560" x="927"/><text style="font-weight:Normal; font-size: 12px; text-anchor: middle; font-family: arial,helvetica; fill: #333333;" y="581" x="975"/></g><g><path style="fill:none;stroke:#333333;stroke-width:1;" d="M 1072 519 1073 462 1073 360 888 360"/><polyline style="fill:#ffffff;stroke:#333333;stroke-width:1;fill-opacity:0;" points="898,354 888,360 898,366"/><text style="font-weight:Normal; font-size: 12px; text-anchor: middle; font-family: arial,helvetica; fill: #333333;" y="375" x="904"/><text style="font-weight:Normal; font-size: 12px; text-anchor: start; font-family: arial,helvetica; fill: #333333;" y="405" x="1073"/><text style="font-weight:Normal; font-size: 12px; text-anchor: middle; font-family: arial,helvetica; fill: #333333;" y="505" x="1057"/></g><g><rect style="fill: #ffffff;fill-opacity: 1;stroke-opacity:0;stroke-width: 1;stroke:%stroke%;" rx="4" height="14" width="56" y="453" x="1041"/><text style="font-weight:Normal; font-size: 12px; text-anchor: start; font-family: arial,helvetica; fill: #333333;" y="453" x="1041"><tspan dy="11" x="1041">submit OK</tspan></text></g><g><path style="fill:none;stroke:#333333;stroke-width:1;" d="M 897 224 1120 225 1119 543 1090 543"/><polyline style="fill:#ffffff;stroke:#333333;stroke-width:1;fill-opacity:0;" points="1100,537 1090,543 1100,549"/><text style="font-weight:Normal; font-size: 12px; text-anchor: middle; font-family: arial,helvetica; fill: #333333;" y="558" x="1106"/><text style="font-weight:Normal; font-size: 12px; text-anchor: start; font-family: arial,helvetica; fill: #333333;" y="384" x="1119"/><text style="font-weight:Normal; font-size: 12px; text-anchor: middle; font-family: arial,helvetica; fill: #333333;" y="209" x="910"/></g><g><rect style="fill: #ffffff;fill-opacity: 1;stroke-opacity:0;stroke-width: 1;stroke:%stroke%;" rx="4" height="14" width="93" y="205" x="935"/><text style="font-weight:Normal; font-size: 12px; text-anchor: start; font-family: arial,helvetica; fill: #333333;" y="205" x="935"><tspan dy="11" x="935">createNewEvent()</tspan></text></g><g><g transform="matrix(1.4471544715447155,0,0,0.98,940,52)"><path style="fill:none;stroke:rgb(178,178,178);stroke-width:0.6910112359550561;" d="m 1 0 0 100 122 0 0-100-123 0"/></g></g><g><rect style="fill: #000000;fill-opacity: 0;stroke-opacity:0;stroke-width: 1;stroke:%stroke%;" rx="4" height="94" width="156" y="55" x="962"/><text style="font-weight:Normal; font-size: 12px; text-anchor: start; font-family: arial,helvetica; fill: #666666;" y="76" x="962"><tspan x="962"> actions only event's </tspan><tspan dy="17" x="962"> creator can preform</tspan><tspan dy="25" x="962">actions only a user who is </tspan><tspan dy="17" x="962">not the creator can preform</tspan></text></g><g><rect style="fill: #000000;fill-opacity: 0;stroke-opacity:0;stroke-width: 1;stroke:%stroke%;" rx="4" height="37" width="30" y="55" x="945"/><text style="font-weight:Normal; font-size: 12px; text-anchor: start; font-family: arial,helvetica; fill: #666666;" y="76" x="945"><tspan x="945">◽</tspan></text></g><g><rect style="fill: #000000;fill-opacity: 0;stroke-opacity:0;stroke-width: 1;stroke:%stroke%;" rx="4" height="37" width="28" y="96" x="945"/><text style="font-weight:Normal; font-size: 12px; text-anchor: start; font-family: arial,helvetica; fill: #666666;" y="117" x="945"><tspan x="945">◾</tspan></text></g><g><path style="fill:none;stroke:#333333;stroke-width:1;" d="M 465 208 466 541 491 541"/><polyline style="fill:#ffffff;stroke:#333333;stroke-width:1;fill-opacity:0;" points="480,547 491,541 480,535"/><text style="font-weight:Normal; font-size: 12px; text-anchor: middle; font-family: arial,helvetica; fill: #333333;" y="526" x="475"/><text style="font-weight:Normal; font-size: 12px; text-anchor: start; font-family: arial,helvetica; fill: #333333;" y="529" x="466"/><text style="font-weight:Normal; font-size: 12px; text-anchor: middle; font-family: arial,helvetica; fill: #333333;" y="220" x="479"/></g><g transform="matrix(1,0,0,1,-19,0)"><rect style="fill: #ffffff;fill-opacity: 1;stroke-opacity:0;stroke-width: 1;stroke:%stroke%;" rx="4" height="14" width="95" y="256" x="459"/><text style="font-weight:Normal; font-size: 12px; text-anchor: start; font-family: arial,helvetica; fill: #333333;" y="256" x="459"><tspan dy="11" x="459">showEventDetail()</tspan></text></g><g><path style="fill:none;stroke:#333333;stroke-width:1;" d="M 1009 782 1009 801 1058 801 1057 782"/><polyline style="fill:#ffffff;stroke:#333333;stroke-width:1;fill-opacity:0;" points="1063,792 1057,782 1051,792"/><text style="font-weight:Normal; font-size: 12px; text-anchor: middle; font-family: arial,helvetica; fill: #333333;" y="797" x="1043"/><text style="font-weight:Normal; font-size: 12px; text-anchor: start; font-family: arial,helvetica; fill: #333333;" y="795" x="1033"/><text style="font-weight:Normal; font-size: 12px; text-anchor: middle; font-family: arial,helvetica; fill: #333333;" y="796" x="1024"/></g><g><rect style="fill: #ffffff;fill-opacity: 1;stroke-opacity:0;stroke-width: 1;stroke:%stroke%;" rx="4" height="14" width="82" y="802" x="997"/><text style="font-weight:Normal; font-size: 12px; text-anchor: start; font-family: arial,helvetica; fill: #333333;" y="802" x="997"><tspan dy="11" x="997">submit ERROR</tspan></text></g><g transform="matrix(1,0,0,1,0,0)"><path style="fill:none;stroke:#333333;stroke-width:1;" d="M 787 647 787 663 834 663 835 647"/><polyline style="fill:#ffffff;stroke:#333333;stroke-width:1;fill-opacity:0;" points="840,657 835,647 828,656"/><text style="font-weight:Normal; font-size: 12px; text-anchor: middle; font-family: arial,helvetica; fill: #333333;" y="662" x="820"/><text style="font-weight:Normal; font-size: 12px; text-anchor: start; font-family: arial,helvetica; fill: #333333;" y="657" x="810"/><text style="font-weight:Normal; font-size: 12px; text-anchor: middle; font-family: arial,helvetica; fill: #333333;" y="661" x="802"/></g><g transform="matrix(1,0,0,1,0,0)"><rect style="fill: #ffffff;fill-opacity: 1;stroke-opacity:0;stroke-width: 1;stroke:%stroke%;" rx="4" height="14" width="82" y="664" x="775"/><text style="font-weight:Normal; font-size: 12px; text-anchor: start; font-family: arial,helvetica; fill: #333333;" y="664" x="775"><tspan dy="11" x="775">submit ERROR</tspan></text></g></svg>