<svg height="558" width="599" viewBox="92 163 599 558" style="background-color:transparent;" preserveAspectRatio="xMinYMin meet" xmlns:xlink="http://www.w3.org/1999/xlink" xmlns="http://www.w3.org/2000/svg"><g transform="matrix(1,0,0,1,-691,-528)"><rect style="fill: #ccccff;fill-opacity: 0;stroke-opacity:1;stroke-width: 2;stroke:#333333;" rx="2" height="140" width="171" y="701" x="1115"/><text style="font-weight:Normal; font-size: 12px; text-anchor: middle; font-family: arial,helvetica; fill: #333333;" y="725" x="1200">«screen»</text><text style="font-weight:bold; font-size: 12px; text-anchor: middle; font-family: arial,helvetica; fill: #333333;" y="742" x="1200">NotificationsPage</text><line style="stroke:#333333;stroke-width:1;stroke-dasharray:none;" y2="756" x2="1285" y1="756" x1="1116"/><line style="stroke:#333333;stroke-width:1;stroke-dasharray:none;" y2="773" x2="1285" y1="773" x1="1116"/><text style="font-weight:Normal; font-size: 12px; text-anchor: start; font-family: arial,helvetica; fill: #333333;" y="793" x="1125">filterInvitationNotifications()</text><text style="font-weight:Normal; font-size: 12px; text-anchor: start; font-family: arial,helvetica; fill: #333333;" y="810" x="1125">filterWeatherNofitications()</text><text style="font-weight:Normal; font-size: 12px; text-anchor: start; font-family: arial,helvetica; fill: #333333;" y="827" x="1125">showAll()</text></g><g transform="matrix(1,0,0,1,-1013,-522)"><rect style="fill: #ccccff;fill-opacity: 0;stroke-opacity:1;stroke-width: 2;stroke:#333333;" rx="2" height="106" width="143" y="712" x="1120"/><text style="font-weight:Normal; font-size: 12px; text-anchor: middle; font-family: arial,helvetica; fill: #333333;" y="736" x="1191">«screen component»</text><text style="font-weight:bold; font-size: 12px; text-anchor: middle; font-family: arial,helvetica; fill: #333333;" y="753" x="1191">NotificationList</text><line style="stroke:#333333;stroke-width:1;stroke-dasharray:none;" y2="767" x2="1262" y1="767" x1="1121"/><line style="stroke:#333333;stroke-width:1;stroke-dasharray:none;" y2="784" x2="1262" y1="784" x1="1121"/><text style="font-weight:Normal; font-size: 12px; text-anchor: start; font-family: arial,helvetica; fill: #333333;" y="804" x="1130">showNotifDetails()</text></g><g transform="matrix(1,0,0,1,-637,-282)"><rect style="fill: #ccccff;fill-opacity: 0;stroke-opacity:1;stroke-width: 2;stroke:#333333;" rx="2" height="106" width="143" y="667" x="1075"/><text style="font-weight:Normal; font-size: 12px; text-anchor: middle; font-family: arial,helvetica; fill: #333333;" y="691" x="1146">«screen component»</text><text style="font-weight:bold; font-size: 12px; text-anchor: middle; font-family: arial,helvetica; fill: #333333;" y="708" x="1146">NotificationDetails</text><line style="stroke:#333333;stroke-width:1;stroke-dasharray:none;" y2="722" x2="1217" y1="722" x1="1076"/><text style="font-weight:Normal; font-size: 12px; text-anchor: start; font-family: arial,helvetica; fill: #333333;" y="742" x="1085">sessionMessage</text><line style="stroke:#333333;stroke-width:1;stroke-dasharray:none;" y2="756" x2="1217" y1="756" x1="1076"/></g><g transform="matrix(1,0,0,1,195,44)"><rect style="fill: #ccccff;fill-opacity: 0;stroke-opacity:1;stroke-width: 2;stroke:#333333;" rx="2" height="157" width="143" y="505" x="338"/><text style="font-weight:Normal; font-size: 12px; text-anchor: middle; font-family: arial,helvetica; fill: #333333;" y="529" x="409">«screen component»</text><text style="font-weight:bold; font-size: 12px; text-anchor: middle; font-family: arial,helvetica; fill: #333333;" y="546" x="409">InvitationNotifDetails</text><line style="stroke:#333333;stroke-width:1;stroke-dasharray:none;" y2="560" x2="480" y1="560" x1="339"/><text style="font-weight:Normal; font-size: 12px; text-anchor: start; font-family: arial,helvetica; fill: #333333;" y="580" x="348">title</text><text style="font-weight:Normal; font-size: 12px; text-anchor: start; font-family: arial,helvetica; fill: #333333;" y="597" x="348">description</text><line style="stroke:#333333;stroke-width:1;stroke-dasharray:none;" y2="611" x2="480" y1="611" x1="339"/><text style="font-weight:Normal; font-size: 12px; text-anchor: start; font-family: arial,helvetica; fill: #333333;" y="631" x="348">accept()</text><text style="font-weight:Normal; font-size: 12px; text-anchor: start; font-family: arial,helvetica; fill: #333333;" y="648" x="348">reject()</text></g><g transform="matrix(1,0,0,1,184,7)"><rect style="fill: #ccccff;fill-opacity: 0;stroke-opacity:1;stroke-width: 2;stroke:#333333;" rx="2" height="140" width="143" y="541" x="149"/><text style="font-weight:Normal; font-size: 12px; text-anchor: middle; font-family: arial,helvetica; fill: #333333;" y="565" x="220">«screen component»</text><text style="font-weight:bold; font-size: 12px; text-anchor: middle; font-family: arial,helvetica; fill: #333333;" y="582" x="220">WeatherNotifDetails</text><line style="stroke:#333333;stroke-width:1;stroke-dasharray:none;" y2="596" x2="291" y1="596" x1="150"/><text style="font-weight:Normal; font-size: 12px; text-anchor: start; font-family: arial,helvetica; fill: #333333;" y="616" x="159">title</text><text style="font-weight:Normal; font-size: 12px; text-anchor: start; font-family: arial,helvetica; fill: #333333;" y="633" x="159">description</text><line style="stroke:#333333;stroke-width:1;stroke-dasharray:none;" y2="647" x2="291" y1="647" x1="150"/><text style="font-weight:Normal; font-size: 12px; text-anchor: start; font-family: arial,helvetica; fill: #333333;" y="667" x="159">showEvent()</text></g><g><path style="fill:none;stroke:#333333;stroke-width:1;" d="M 422 201 252 201"/><polyline style="fill:#ffffff;stroke:#333333;stroke-width:1;fill-opacity:0;" points="262,195 252,201 262,207"/><text style="font-weight:Normal; font-size: 12px; text-anchor: middle; font-family: arial,helvetica; fill: #333333;" y="216" x="268"/><text style="font-weight:Normal; font-size: 12px; text-anchor: start; font-family: arial,helvetica; fill: #333333;" y="195" x="337"/><text style="font-weight:Normal; font-size: 12px; text-anchor: middle; font-family: arial,helvetica; fill: #333333;" y="216" x="408"/></g><g transform="matrix(1,0,0,1,2,0)"><rect style="fill: #ffffff;fill-opacity: 1;stroke-opacity:0;stroke-width: 1;stroke:%stroke%;" rx="4" height="14" width="137" y="183" x="270"/><text style="font-weight:Normal; font-size: 12px; text-anchor: start; font-family: arial,helvetica; fill: #333333;" y="183" x="270"><tspan dy="11" x="270">filterInvitationNotifications()</tspan></text></g><g><path style="fill:none;stroke:#333333;stroke-width:1;" d="M 422 236 252 235"/><polyline style="fill:#ffffff;stroke:#333333;stroke-width:1;fill-opacity:0;" points="262,229 252,235 262,241"/><text style="font-weight:Normal; font-size: 12px; text-anchor: middle; font-family: arial,helvetica; fill: #333333;" y="249" x="267"/><text style="font-weight:Normal; font-size: 12px; text-anchor: start; font-family: arial,helvetica; fill: #333333;" y="229" x="337"/><text style="font-weight:Normal; font-size: 12px; text-anchor: middle; font-family: arial,helvetica; fill: #333333;" y="250" x="408"/></g><g transform="matrix(1,0,0,1,2,0)"><rect style="fill: #ffffff;fill-opacity: 1;stroke-opacity:0;stroke-width: 1;stroke:%stroke%;" rx="4" height="14" width="137" y="217" x="270"/><text style="font-weight:Normal; font-size: 12px; text-anchor: start; font-family: arial,helvetica; fill: #333333;" y="217" x="270"><tspan dy="11" x="270">filterWeatherNotifications()</tspan></text></g><g><path style="fill:none;stroke:#333333;stroke-width:1;" d="M 422 266 252 266"/><polyline style="fill:#ffffff;stroke:#333333;stroke-width:1;fill-opacity:0;" points="262,260 252,266 262,272"/><text style="font-weight:Normal; font-size: 12px; text-anchor: middle; font-family: arial,helvetica; fill: #333333;" y="281" x="268"/><text style="font-weight:Normal; font-size: 12px; text-anchor: start; font-family: arial,helvetica; fill: #333333;" y="260" x="337"/><text style="font-weight:Normal; font-size: 12px; text-anchor: middle; font-family: arial,helvetica; fill: #333333;" y="281" x="408"/></g><g transform="matrix(1,0,0,1,-66,3)"><rect style="fill: #ffffff;fill-opacity: 1;stroke-opacity:0;stroke-width: 1;stroke:%stroke%;" rx="4" height="14" width="48" y="248" x="382"/><text style="font-weight:Normal; font-size: 12px; text-anchor: start; font-family: arial,helvetica; fill: #333333;" y="248" x="382"><tspan dy="11" x="382">showAll()</tspan></text></g><g><path style="fill:none;stroke:#333333;stroke-width:1;" d="M 422 287 252 286"/><path style="fill:rgb(250,250,250);stroke:#333333;stroke-width:1;" d="M 422 287 411.6432 280.9390 401.2157 286.8777 411.5726 292.9388Z"/><text style="font-weight:Normal; font-size: 12px; text-anchor: middle; font-family: arial,helvetica; fill: #333333;" y="300" x="267"/><text style="font-weight:Normal; font-size: 12px; text-anchor: start; font-family: arial,helvetica; fill: #333333;" y="280" x="337"/><text style="font-weight:Normal; font-size: 12px; text-anchor: middle; font-family: arial,helvetica; fill: #333333;" y="301" x="408"/></g><g transform="matrix(1,0,0,1,0,0)"><path style="fill:none;stroke:#333333;stroke-width:1;" d="M 487 493 486 527 426 527 404 546"/><path style="fill:rgb(250,250,250);stroke:#333333;stroke-width:1;" d="M 487 493 480.6971 503.2114 486.3890 513.7756 492.6919 503.5642Z"/><text style="font-weight:Normal; font-size: 12px; text-anchor: middle; font-family: arial,helvetica; fill: #333333;" y="546" x="425"/><text style="font-weight:Normal; font-size: 12px; text-anchor: start; font-family: arial,helvetica; fill: #333333;" y="521" x="456"/><text style="font-weight:Normal; font-size: 12px; text-anchor: middle; font-family: arial,helvetica; fill: #333333;" y="506" x="501"/></g><g transform="matrix(1,0,0,1,0,0)"><path style="fill:none;stroke:#333333;stroke-width:1;" d="M 528 493 527 527 585 527 604 547"/><path style="fill:rgb(250,250,250);stroke:#333333;stroke-width:1;" d="M 528 493 521.6971 503.2114 527.3890 513.7756 533.6919 503.5642Z"/><text style="font-weight:Normal; font-size: 12px; text-anchor: middle; font-family: arial,helvetica; fill: #333333;" y="525" x="602"/><text style="font-weight:Normal; font-size: 12px; text-anchor: start; font-family: arial,helvetica; fill: #333333;" y="521" x="556"/><text style="font-weight:Normal; font-size: 12px; text-anchor: middle; font-family: arial,helvetica; fill: #333333;" y="506" x="542"/></g><g transform="matrix(1,0,0,1,-277,4)"><rect style="fill: #ccccff;fill-opacity: 0;stroke-opacity:1;stroke-width: 2;stroke:#333333;" rx="2" height="89" width="96" y="570" x="407"/><text style="font-weight:Normal; font-size: 12px; text-anchor: middle; font-family: arial,helvetica; fill: #333333;" y="594" x="455">«screen»</text><text style="font-weight:bold; font-size: 12px; text-anchor: middle; font-family: arial,helvetica; fill: #333333;" y="611" x="455">EventsPage</text><line style="stroke:#333333;stroke-width:1;stroke-dasharray:none;" y2="625" x2="502" y1="625" x1="408"/><line style="stroke:#333333;stroke-width:1;stroke-dasharray:none;" y2="642" x2="502" y1="642" x1="408"/></g><g><path style="fill:none;stroke:#333333;stroke-width:1;" d="M 509 315 509 383"/><path style="fill:rgb(250,250,250);stroke:#333333;stroke-width:1;" d="M 509 315 503 325.3923 509 335.7846 515 325.3923Z"/><text style="font-weight:Normal; font-size: 12px; text-anchor: middle; font-family: arial,helvetica; fill: #333333;" y="367" x="524"/><text style="font-weight:Normal; font-size: 12px; text-anchor: start; font-family: arial,helvetica; fill: #333333;" y="349" x="509"/><text style="font-weight:Normal; font-size: 12px; text-anchor: middle; font-family: arial,helvetica; fill: #333333;" y="329" x="524"/></g><g><path style="fill:none;stroke:#333333;stroke-width:1;" d="M 331 618 228 618"/><polyline style="fill:#ffffff;stroke:#333333;stroke-width:1;fill-opacity:0;" points="238,612 228,618 238,624"/><text style="font-weight:Normal; font-size: 12px; text-anchor: middle; font-family: arial,helvetica; fill: #333333;" y="633" x="244"/><text style="font-weight:Normal; font-size: 12px; text-anchor: start; font-family: arial,helvetica; fill: #333333;" y="612" x="279"/><text style="font-weight:Normal; font-size: 12px; text-anchor: middle; font-family: arial,helvetica; fill: #333333;" y="633" x="317"/></g><g><rect style="fill: #ffffff;fill-opacity: 1;stroke-opacity:0;stroke-width: 1;stroke:%stroke%;" rx="4" height="14" width="65" y="602" x="242"/><text style="font-weight:Normal; font-size: 12px; text-anchor: start; font-family: arial,helvetica; fill: #333333;" y="602" x="242"><tspan dy="11" x="242">showEvent()</tspan></text></g><g><path style="fill:none;stroke:#333333;stroke-width:1;" d="M 178 298 178 438 436 438"/><polyline style="fill:#ffffff;stroke:#333333;stroke-width:1;fill-opacity:0;" points="425,444 436,438 425,432"/><text style="font-weight:Normal; font-size: 12px; text-anchor: middle; font-family: arial,helvetica; fill: #333333;" y="423" x="420"/><text style="font-weight:Normal; font-size: 12px; text-anchor: start; font-family: arial,helvetica; fill: #333333;" y="426" x="178"/><text style="font-weight:Normal; font-size: 12px; text-anchor: middle; font-family: arial,helvetica; fill: #333333;" y="312" x="193"/></g><g><rect style="fill: #ffffff;fill-opacity: 1;stroke-opacity:0;stroke-width: 1;stroke:%stroke%;" rx="4" height="14" width="95" y="420" x="237"/><text style="font-weight:Normal; font-size: 12px; text-anchor: start; font-family: arial,helvetica; fill: #333333;" y="420" x="237"><tspan dy="11" x="237">showNotifDetails()</tspan></text></g><g><path style="fill:none;stroke:#333333;stroke-width:1;" d="M 641 547 640 438 583 438"/><polyline style="fill:#ffffff;stroke:#333333;stroke-width:1;fill-opacity:0;" points="593,432 583,438 593,444"/><text style="font-weight:Normal; font-size: 12px; text-anchor: middle; font-family: arial,helvetica; fill: #333333;" y="453" x="599"/><text style="font-weight:Normal; font-size: 12px; text-anchor: start; font-family: arial,helvetica; fill: #333333;" y="426" x="640"/><text style="font-weight:Normal; font-size: 12px; text-anchor: middle; font-family: arial,helvetica; fill: #333333;" y="534" x="626"/></g><g transform="matrix(1,0,0,1,3,16)"><rect style="fill: #ffffff;fill-opacity: 1;stroke-opacity:0;stroke-width: 1;stroke:%stroke%;" rx="4" height="31" width="43" y="474" x="618"/><text style="font-weight:Normal; font-size: 12px; text-anchor: start; font-family: arial,helvetica; fill: #333333;" y="474" x="618"><tspan dy="11" x="618">reject() /</tspan><tspan dy="17" x="618">accept()</tspan></text></g></svg>