<svg height="568" width="763" viewBox="213 -575 763 568" style="background-color:transparent;" preserveAspectRatio="xMinYMin meet" xmlns:xlink="http://www.w3.org/1999/xlink" xmlns="http://www.w3.org/2000/svg"><g transform="matrix(1,0,0,1,0,12)"><g transform="matrix(12,0,0,10.52,228,-577)"><path style="fill: none;stroke:#333333;stroke-width:0.16666666666666666;" d="m 0.25 0.25 49.5 0 0 49.5-49.5 0z"/><path style="fill: none;stroke:#333333;stroke-width:0.16666666666666666;" d="m 0.25 0.25 49.5 0 0 5.9454-49.5 0z"/><path style="fill: none;stroke:#333333;stroke-width:0.16666666666666666;" d="m 10.4901 2.3082 37.3395 0 0 1.7919-37.3395 0z"/><path style="fill: none;stroke:#333333;stroke-width:0.16666666666666666;" d="m 2.5500 2.1704-1.1027 1.0337 1.1027 0.896"/><path style="fill:none;stroke:#333333;stroke-width:0.16666666666666666;" d="m 1.5851 3.2041 1.6541 0"/><path style="fill: none;stroke:#333333;stroke-width:0.16666666666666666;" d="m 4.4811 2.1704 1.1027 1.0337-1.1027 0.896"/><path style="fill:none;stroke:#333333;stroke-width:0.16666666666666666;" d="m 5.4459 3.2041-1.6541 0"/><path style="fill: none;stroke:#333333;stroke-width:0.16666666666666666;" d="m 8.7806 3.7879c-0.1832 0.1832-0.4364 0.2966-0.7159 0.2966-0.5592 0-1.0125-0.4533-1.0125-1.0125 0-0.5593 0.4533-1.0125 1.0125-1.0125 0.2796 0 0.5885 0.1691 0.7718 0.4639"/><path style="fill:none;stroke:#333333;stroke-width:0.16666666666666666;" d="m 8.8868 2.8021-0.4880-0.2543 0.4642-0.2954z"/></g></g><g transform="matrix(1,0,0,1,0,-1)"><g transform="matrix(1.0396039603960396,0,0,1.5217391304347827,263,-365)"><path style="fill:none;stroke:#333333;stroke-width:1.3142857142857143;" d="m 101 1-101 0 0 45 101 0 0-46"/></g></g><g transform="matrix(1,0,0,1,3,49)"><g transform="matrix(1,0,0,1,423,-413)"><path style="fill:none;stroke:#333333;stroke-width:2;" d="m 1 7 0 260 352 0 0-267-353 0z"/></g></g><g transform="matrix(1,0,0,1,2,-4)"><g transform="matrix(1.0555555555555556,0,0,1.010928961748634,259,-276)"><path style="fill:none;stroke:#333333;stroke-width:1.894736842105263;" d="m 102 0-102 0 0 183 108 0-3 0z"/></g></g><g transform="matrix(1,0,0,1,3,49)"><g transform="matrix(1,0,0,1,437,-380)"><path style="fill:none;stroke:#333333;stroke-width:2;" d="m 0 0 322 0"/></g></g><g transform="matrix(1,0,0,1,3,49)"><g transform="matrix(1,0,0,1,462,-362)"><path style="fill:none;stroke:#333333;stroke-width:2;" d="m 0 1 0 22 21 0 0-23z"/></g></g><g transform="matrix(1,0,0,1,3,49)"><g transform="matrix(1,0,0,1,499,-363)"><path style="fill:none;stroke:#333333;stroke-width:2;" d="m 0 1 0 22 21 0 0-23z"/></g></g><g transform="matrix(1,0,0,1,3,49)"><g transform="matrix(1,0,0,1,541,-363)"><path style="fill:none;stroke:#333333;stroke-width:2;" d="m 0 1 0 22 21 0 0-23z"/></g></g><g transform="matrix(1,0,0,1,3,49)"><g transform="matrix(1,0,0,1,578,-364)"><path style="fill:none;stroke:#333333;stroke-width:2;" d="m 0 1 0 22 21 0 0-23z"/></g></g><g transform="matrix(1,0,0,1,3,49)"><g transform="matrix(1,0,0,1,621,-363)"><path style="fill:none;stroke:#333333;stroke-width:2;" d="m 0 1 0 22 21 0 0-23z"/></g></g><g transform="matrix(1,0,0,1,-15,43)"><g transform="matrix(1,0,0,1,678,-356)"><path style="fill:none;stroke:#333333;stroke-width:2;" d="m 0 1 0 22 21 0 0-23z"/></g><text style="font-weight:Normal; font-size: 12px; text-anchor: middle; font-family: arial,helvetica; fill: #333333;" y="-341" x="688"/></g><g transform="matrix(1,0,0,1,3,49)"><g transform="matrix(1,0,0,1,699,-363)"><path style="fill:none;stroke:#333333;stroke-width:2;" d="m 0 1 0 22 21 0 0-23z"/></g></g><g transform="matrix(1,0,0,1,3,49)"><g transform="matrix(1,0,0,1,460,-321)"><path style="fill:none;stroke:#333333;stroke-width:2;" d="m 0 1 0 22 21 0 0-23z"/></g></g><g transform="matrix(1,0,0,1,3,49)"><g transform="matrix(1,0,0,1,497,-322)"><path style="fill:none;stroke:#333333;stroke-width:2;" d="m 0 1 0 22 21 0 0-23z"/></g></g><g transform="matrix(1,0,0,1,3,49)"><g transform="matrix(1,0,0,1,539,-322)"><path style="fill:none;stroke:#333333;stroke-width:2;" d="m 0 1 0 22 21 0 0-23z"/></g></g><g transform="matrix(1,0,0,1,3,49)"><g transform="matrix(1,0,0,1,576,-323)"><path style="fill:none;stroke:#333333;stroke-width:2;" d="m 0 1 0 22 21 0 0-23z"/></g></g><g transform="matrix(1,0,0,1,3,49)"><g transform="matrix(1,0,0,1,619,-322)"><path style="fill:none;stroke:#333333;stroke-width:2;" d="m 0 1 0 22 21 0 0-23z"/></g></g><g transform="matrix(1,0,0,1,3,49)"><g transform="matrix(1,0,0,1,656,-323)"><path style="fill:none;stroke:#333333;stroke-width:2;" d="m 0 1 0 22 21 0 0-23z"/></g></g><g transform="matrix(1,0,0,1,3,49)"><g transform="matrix(1,0,0,1,698,-323)"><path style="fill:none;stroke:#333333;stroke-width:2;" d="m 0 1 0 22 21 0 0-23z"/></g></g><g transform="matrix(1,0,0,1,3,49)"><g transform="matrix(1,0,0,1,460,-282)"><path style="fill:none;stroke:#333333;stroke-width:2;" d="m 0 1 0 22 21 0 0-23z"/></g></g><g transform="matrix(1,0,0,1,3,49)"><g transform="matrix(1,0,0,1,497,-283)"><path style="fill:none;stroke:#333333;stroke-width:2;" d="m 0 1 0 22 21 0 0-23z"/></g></g><g transform="matrix(1,0,0,1,3,49)"><g transform="matrix(1,0,0,1,539,-283)"><path style="fill:none;stroke:#333333;stroke-width:2;" d="m 0 1 0 22 21 0 0-23z"/></g></g><g transform="matrix(1,0,0,1,3,49)"><g transform="matrix(1,0,0,1,576,-284)"><path style="fill:none;stroke:#333333;stroke-width:2;" d="m 0 1 0 22 21 0 0-23z"/></g></g><g transform="matrix(1,0,0,1,3,49)"><g transform="matrix(1,0,0,1,619,-283)"><path style="fill:none;stroke:#333333;stroke-width:2;" d="m 0 1 0 22 21 0 0-23z"/></g></g><g transform="matrix(1,0,0,1,3,49)"><g transform="matrix(1,0,0,1,656,-284)"><path style="fill:none;stroke:#333333;stroke-width:2;" d="m 0 1 0 22 21 0 0-23z"/></g></g><g transform="matrix(1,0,0,1,3,49)"><g transform="matrix(1,0,0,1,698,-284)"><path style="fill:none;stroke:#333333;stroke-width:2;" d="m 0 1 0 22 21 0 0-23z"/></g></g><g transform="matrix(1,0,0,1,3,49)"><g transform="matrix(1,0,0,1,459,-242)"><path style="fill:none;stroke:#333333;stroke-width:2;" d="m 0 1 0 22 21 0 0-23z"/></g></g><g transform="matrix(1,0,0,1,3,49)"><g transform="matrix(1,0,0,1,496,-243)"><path style="fill:none;stroke:#333333;stroke-width:2;" d="m 0 1 0 22 21 0 0-23z"/></g></g><g transform="matrix(1,0,0,1,3,49)"><g transform="matrix(1,0,0,1,538,-243)"><path style="fill:none;stroke:#333333;stroke-width:2;" d="m 0 1 0 22 21 0 0-23z"/></g></g><g transform="matrix(1,0,0,1,3,49)"><g transform="matrix(1,0,0,1,575,-244)"><path style="fill:none;stroke:#333333;stroke-width:2;" d="m 0 1 0 22 21 0 0-23z"/></g></g><g transform="matrix(1,0,0,1,3,49)"><g transform="matrix(1,0,0,1,618,-243)"><path style="fill:none;stroke:#333333;stroke-width:2;" d="m 0 1 0 22 21 0 0-23z"/></g></g><g transform="matrix(1,0,0,1,3,49)"><g transform="matrix(1,0,0,1,655,-244)"><path style="fill:none;stroke:#333333;stroke-width:2;" d="m 0 1 0 22 21 0 0-23z"/></g></g><g transform="matrix(1,0,0,1,3,49)"><g transform="matrix(1,0,0,1,697,-244)"><path style="fill:none;stroke:#333333;stroke-width:2;" d="m 0 1 0 22 21 0 0-23z"/></g></g><g transform="matrix(1,0,0,1,3,49)"><g transform="matrix(1,0,0,1,461,-202)"><path style="fill:none;stroke:#333333;stroke-width:2;" d="m 0 1 0 22 21 0 0-23z"/></g></g><g transform="matrix(1,0,0,1,3,49)"><g transform="matrix(1,0,0,1,498,-203)"><path style="fill:none;stroke:#333333;stroke-width:2;" d="m 0 1 0 22 21 0 0-23z"/></g></g><g transform="matrix(1,0,0,1,3,49)"><g transform="matrix(1,0,0,1,540,-203)"><path style="fill:none;stroke:#333333;stroke-width:2;" d="m 0 1 0 22 21 0 0-23z"/></g></g><g><g transform="matrix(1,0,0,1,232,-458)"><path style="fill:none;stroke:#333333;stroke-width:2;" d="m 0 0 593 0"/></g></g><g><g transform="matrix(1,0,0,0.9565217391304348,751,-488)"><path style="fill:none;stroke:#333333;stroke-width:2;" d="m 0 1 0 22 21 0 0-23z"/></g></g><g><g transform="matrix(1,0,0,1,717,-488)"><path style="fill:none;stroke:#333333;stroke-width:2;" d="m 0 10 9-10 11 11"/></g></g><g><g transform="matrix(1,0,0,1,721,-479)"><path style="fill:none;stroke:#333333;stroke-width:2;" d="m 0 0 0 12 11 0 0-12"/></g></g><g><rect style="fill: #000000;fill-opacity: 0;stroke-opacity:0;stroke-width: 1;stroke:%stroke%;" rx="4" height="35" width="100" y="-467" x="854"/><text style="font-weight:Normal; font-size: 12px; text-anchor: start; font-family: arial,helvetica; fill: #333333;" y="-446" x="854"><tspan font-weight="bold" x="854">Log  out</tspan></text></g><g><path style="fill:none;stroke:#333333;stroke-width:1;" d="M 859-415C 859-415 849.4161-416.9867 845-419 829.4368-426.0952 818.3969-442.1320 802-447 799.1241-447.8538 795.9871-447.2776 793-447 782.1940-445.9957 769.3511-434.0692 761-441 755.1004-445.8962 761-464 761-464"/><polyline style="fill:#ffffff;stroke:#333333;stroke-width:1;fill-opacity:0;" points="763,-452 761,-464 752,-455"/><text style="font-weight:Normal; font-size: 12px; text-anchor: middle; font-family: arial,helvetica; fill: #333333;" y="-448" x="746"/><text style="font-weight:Normal; font-size: 12px; text-anchor: start; font-family: arial,helvetica; fill: #333333;" y="-453" x="797"/><text style="font-weight:Normal; font-size: 12px; text-anchor: middle; font-family: arial,helvetica; fill: #333333;" y="-403" x="841"/></g><g transform="matrix(1,0,0,1,9,-3)"><rect style="fill: #000000;fill-opacity: 0;stroke-opacity:0;stroke-width: 1;stroke:%stroke%;" rx="4" height="35" width="80" y="-273" x="268"/><text style="font-weight:Normal; font-size: 12px; text-anchor: start; font-family: arial,helvetica; fill: #333333;" y="-252" x="268"><tspan font-weight="bold" x="268">Nofitications</tspan></text></g><g transform="matrix(1,0,0,1,2,-4)"><g transform="matrix(1,0,0,1,275,-231)"><path style="fill:none;stroke:#333333;stroke-width:2;" d="m 0 0c 0 8.1678 0.3397 2 4 2c 0.3333 0 0.8509-0.2981 1 0c 0.4249 0.8497-0.3249 10 0 10c 2.2511 0 9.8974-14.1026 12-12c 2 2-2 10 0 12c 2.3511 2.3511 10.8563-6.8563 11-7c 2.1144-2.1144 11.2810 2.4876 15 1c 4.4175-1.7670 5.2873-4 10-4"/></g></g><g transform="matrix(1,0,0,1,2,-4)"><g transform="matrix(1,0,0,1,274,-189)"><path style="fill:none;stroke:#333333;stroke-width:2;" d="m 0 0c 0 5.5870 9.9677-1.0647 12 3c 0.6414 1.2827-1.1219 6.8781 0 8c 3.1972 3.1972 9.2563-8.8719 13-7c 1.3538 0.6769 1 10 1 10c 0 0 2.0385-1.2789 3-2c 4.2948-3.2211 9.3759-8.3759 13-12c 2.9241-2.9241 2.7043 4.7043 3 5c 1.1152 1.1152 9.2477 0 11 0"/></g></g><g transform="matrix(1,0,0,1,2,-4)"><g transform="matrix(1,0,0,1,269,-152)"><path style="fill:none;stroke:#333333;stroke-width:2;" d="m 5 0c 0 3.7347-2.9415 9.7659-4 14c-0.4122 1.6489-2.6124 5.5375-1 5c 1.8385-0.6128 12.6992-10.3008 14-9c 1.0483 1.0483 0 8.4375 0 10c 0 1.3333-0.9428 4.9428 0 4c 3.5999-3.5999 7.2992-10.2992 10-13c 0.4714-0.4714 1.3333 0 2 0c 2.7184 0-0.6828 3.7665 9 1c 2.3987-0.6853 3.9782-2.9891 6-4c 5.3004-2.6502 16.8726 0 23 0"/></g></g><g transform="matrix(1,0,0,1,2,-4)"><g transform="matrix(0.7142857142857143,0,0,0.6086956521739131,342,-238)"><path style="fill:none;stroke:#333333;stroke-width:2.8;" d="m 0 1 0 22 21 0 0-23z"/></g></g><g transform="matrix(1,0,0,1,2,-4)"><g transform="matrix(0.6190476190476191,0,0,0.5652173913043478,344,-189)"><path style="fill:none;stroke:#333333;stroke-width:3.230769230769231;" d="m 0 1 0 22 21 0 0-23z"/></g></g><g transform="matrix(1,0,0,1,2,-4)"><g transform="matrix(0.7142857142857143,0,0,0.5217391304347826,344,-150)"><path style="fill:none;stroke:#333333;stroke-width:2.8;" d="m 0 1 0 22 21 0 0-23z"/></g></g><g transform="matrix(1,0,0,1,2,-16)"><rect style="fill: #000000;fill-opacity: 0;stroke-opacity:0;stroke-width: 1;stroke:%stroke%;" rx="4" height="35" width="61" y="-111" x="285"/><text style="font-weight:Normal; font-size: 12px; text-anchor: start; font-family: arial,helvetica; fill: #333333;" y="-90" x="285"><tspan font-weight="bold" x="285">show all</tspan></text></g><g transform="matrix(1,0,0,1,-12,-27)"><rect style="fill: #000000;fill-opacity: 0;stroke-opacity:0;stroke-width: 1;stroke:%stroke%;" rx="4" height="69" width="87" y="-336" x="287"/><text style="font-weight:Normal; font-size: 12px; text-anchor: start; font-family: arial,helvetica; fill: #333333;" y="-315" x="287"><tspan font-weight="bold" x="287">Event Options</tspan><tspan/><tspan font-weight="bold" dy="17" x="287">__________</tspan><tspan/><tspan font-weight="bold" dy="17" x="287">__________</tspan></text></g><g><g transform="matrix(1,0,0,1,783,-490)"><path style="fill:none;stroke:#333333;stroke-width:2;" d="m 0 1 0 22 21 0 0-23z"/></g><text style="font-weight:Normal; font-size: 12px; text-anchor: middle; font-family: arial,helvetica; fill: #333333;" y="-475" x="793"/></g><g><path style="fill:none;stroke:#333333;stroke-width:1;" d="M 852-450C 852-450 835.2867-452.3756 833-459 831.7839-462.5228 839.4586-465.5705 838-469 833.6262-479.2839 806-479 806-479"/><polyline style="fill:#ffffff;stroke:#333333;stroke-width:1;fill-opacity:0;" points="816,-485 806,-479 816,-473"/><text style="font-weight:Normal; font-size: 12px; text-anchor: middle; font-family: arial,helvetica; fill: #333333;" y="-460" x="817"/><text style="font-weight:Normal; font-size: 12px; text-anchor: start; font-family: arial,helvetica; fill: #333333;" y="-470" x="835"/><text style="font-weight:Normal; font-size: 12px; text-anchor: middle; font-family: arial,helvetica; fill: #333333;" y="-441" x="833"/></g><g transform="matrix(1,0,0,1,-15,-54)"><rect style="fill: #000000;fill-opacity: 0;stroke-opacity:0;stroke-width: 1;stroke:%stroke%;" rx="4" height="61" width="218" y="-391" x="275"/><text style="font-weight:Normal; font-size: 12px; text-anchor: start; font-family: arial,helvetica; fill: #333333;" y="-370" x="275"><tspan x="275" font-weight="bold" font-size="36" dy="26">Hello, user!</tspan></text></g><g transform="matrix(1,0,0,1,0,0)"><rect style="fill: #000000;fill-opacity: 0;stroke-opacity:0;stroke-width: 1;stroke:%stroke%;" rx="4" height="35" width="100" y="-432" x="861"/><text style="font-weight:Normal; font-size: 12px; text-anchor: start; font-family: arial,helvetica; fill: #333333;" y="-411" x="861"><tspan font-weight="bold" x="861">settings</tspan></text></g><g><g transform="matrix(1,0,0,1,707,-133)"><path style="fill:none;stroke:#333333;stroke-width:2;" d="m 15 5-15 0 4-5"/></g></g><g><g transform="matrix(1,0,0,1,707,-128)"><path style="fill:none;stroke:#333333;stroke-width:2;" d="m 0 0 5 5"/></g></g><g><g transform="matrix(1,0,0,1,741,-133)"><path style="fill:none;stroke:#333333;stroke-width:2;" d="m 0 5 18 0-5-5"/></g></g><g><g transform="matrix(1,0,0,1,754,-128)"><path style="fill:none;stroke:#333333;stroke-width:2;" d="m 5 0-5 5"/></g></g></svg>