<svg height="436" width="613" viewBox="401 102 613 436" style="background-color:transparent;" preserveAspectRatio="xMinYMin meet" xmlns:xlink="http://www.w3.org/1999/xlink" xmlns="http://www.w3.org/2000/svg"><g><rect style="fill: #ccccff;fill-opacity: 0;stroke-opacity:1;stroke-width: 2;stroke:#333333;" rx="2" height="90" width="127" y="120" x="425"/><text style="font-weight:Normal; font-size: 12px; text-anchor: middle; font-family: arial,helvetica; fill: #333333;" y="144" x="488">«screen»</text><text style="font-weight:bold; font-size: 12px; text-anchor: middle; font-family: arial,helvetica; fill: #333333;" y="161" x="488">UserSettingsPage</text><line style="stroke:#333333;stroke-width:1;stroke-dasharray:none;" y2="175" x2="551" y1="175" x1="426"/><line style="stroke:#333333;stroke-width:1;stroke-dasharray:none;" y2="192" x2="551" y1="192" x1="426"/></g><g><rect style="fill: #ccccff;fill-opacity: 0;stroke-opacity:1;stroke-width: 2;stroke:#333333;" rx="2" height="174" width="143" y="285" x="416"/><text style="font-weight:Normal; font-size: 12px; text-anchor: middle; font-family: arial,helvetica; fill: #333333;" y="309" x="487">«screen component»</text><text style="font-weight:bold; font-size: 12px; text-anchor: middle; font-family: arial,helvetica; fill: #333333;" y="326" x="487">UserSettings</text><line style="stroke:#333333;stroke-width:1;stroke-dasharray:none;" y2="340" x2="558" y1="340" x1="417"/><text style="font-weight:Normal; font-size: 12px; text-anchor: start; font-family: arial,helvetica; fill: #333333;" y="360" x="426">username</text><text style="font-weight:Normal; font-size: 12px; text-anchor: start; font-family: arial,helvetica; fill: #333333;" y="377" x="426">password</text><text style="font-weight:Normal; font-size: 12px; text-anchor: start; font-family: arial,helvetica; fill: #333333;" y="394" x="426">email</text><line style="stroke:#333333;stroke-width:1;stroke-dasharray:none;" y2="408" x2="558" y1="408" x1="417"/><text style="font-weight:Normal; font-size: 12px; text-anchor: start; font-family: arial,helvetica; fill: #333333;" y="428" x="426">changeEmail()</text><text style="font-weight:Normal; font-size: 12px; text-anchor: start; font-family: arial,helvetica; fill: #333333;" y="445" x="426">changePassword()</text></g><g><rect style="fill: #ccccff;fill-opacity: 0;stroke-opacity:1;stroke-width: 2;stroke:#333333;" rx="2" height="106" width="143" y="112" x="702"/><text style="font-weight:Normal; font-size: 12px; text-anchor: middle; font-family: arial,helvetica; fill: #333333;" y="136" x="773">«screen component»</text><text style="font-weight:bold; font-size: 12px; text-anchor: middle; font-family: arial,helvetica; fill: #333333;" y="153" x="773">ChangeSettings</text><line style="stroke:#333333;stroke-width:1;stroke-dasharray:none;" y2="167" x2="844" y1="167" x1="703"/><text style="font-weight:Normal; font-size: 12px; text-anchor: start; font-family: arial,helvetica; fill: #333333;" y="187" x="712">sessionMessage</text><line style="stroke:#333333;stroke-width:1;stroke-dasharray:none;" y2="201" x2="844" y1="201" x1="703"/></g><g><rect style="fill: #ccccff;fill-opacity: 0;stroke-opacity:1;stroke-width: 2;stroke:#333333;" rx="2" height="157" width="103" y="294" x="630"/><text style="font-weight:Normal; font-size: 12px; text-anchor: middle; font-family: arial,helvetica; fill: #333333;" y="318" x="681">«input form »</text><text style="font-weight:bold; font-size: 12px; text-anchor: middle; font-family: arial,helvetica; fill: #333333;" y="335" x="681">ChangeEmail</text><line style="stroke:#333333;stroke-width:1;stroke-dasharray:none;" y2="349" x2="732" y1="349" x1="631"/><text style="font-weight:Normal; font-size: 12px; text-anchor: start; font-family: arial,helvetica; fill: #333333;" y="369" x="640">oldEmail</text><text style="font-weight:Normal; font-size: 12px; text-anchor: start; font-family: arial,helvetica; fill: #333333;" y="386" x="640">newEmail</text><text style="font-weight:Normal; font-size: 12px; text-anchor: start; font-family: arial,helvetica; fill: #333333;" y="403" x="640">confirmEmail</text><line style="stroke:#333333;stroke-width:1;stroke-dasharray:none;" y2="417" x2="732" y1="417" x1="631"/><text style="font-weight:Normal; font-size: 12px; text-anchor: start; font-family: arial,helvetica; fill: #333333;" y="437" x="640">submit()</text></g><g><rect style="fill: #ccccff;fill-opacity: 0;stroke-opacity:1;stroke-width: 2;stroke:#333333;" rx="2" height="157" width="126" y="294" x="815"/><text style="font-weight:Normal; font-size: 12px; text-anchor: middle; font-family: arial,helvetica; fill: #333333;" y="318" x="878">«input form »</text><text style="font-weight:bold; font-size: 12px; text-anchor: middle; font-family: arial,helvetica; fill: #333333;" y="335" x="878">ChangePassword</text><line style="stroke:#333333;stroke-width:1;stroke-dasharray:none;" y2="349" x2="940" y1="349" x1="816"/><text style="font-weight:Normal; font-size: 12px; text-anchor: start; font-family: arial,helvetica; fill: #333333;" y="369" x="825">oldPassword</text><text style="font-weight:Normal; font-size: 12px; text-anchor: start; font-family: arial,helvetica; fill: #333333;" y="386" x="825">newPassword</text><text style="font-weight:Normal; font-size: 12px; text-anchor: start; font-family: arial,helvetica; fill: #333333;" y="403" x="825">confirmPassword</text><line style="stroke:#333333;stroke-width:1;stroke-dasharray:none;" y2="417" x2="940" y1="417" x1="816"/><text style="font-weight:Normal; font-size: 12px; text-anchor: start; font-family: arial,helvetica; fill: #333333;" y="437" x="825">submit()</text></g><g><path style="fill:none;stroke:#333333;stroke-width:1;" d="M 516 461 516 481 681 480 679 453"/><polyline style="fill:#ffffff;stroke:#333333;stroke-width:1;fill-opacity:0;" points="685,462 679,453 673,463"/><text style="font-weight:Normal; font-size: 12px; text-anchor: middle; font-family: arial,helvetica; fill: #333333;" y="469" x="666"/><text style="font-weight:Normal; font-size: 12px; text-anchor: start; font-family: arial,helvetica; fill: #333333;" y="474" x="598"/><text style="font-weight:Normal; font-size: 12px; text-anchor: middle; font-family: arial,helvetica; fill: #333333;" y="475" x="531"/></g><g><rect style="fill: #ffffff;fill-opacity: 1;stroke-opacity:0;stroke-width: 1;stroke:%stroke%;" rx="4" height="14" width="76" y="463" x="573"/><text style="font-weight:Normal; font-size: 12px; text-anchor: start; font-family: arial,helvetica; fill: #333333;" y="463" x="573"><tspan dy="11" x="573">changeEmail()</tspan></text></g><g><path style="fill:none;stroke:#333333;stroke-width:1;" d="M 487 461 486 501 878 501 878 453"/><polyline style="fill:#ffffff;stroke:#333333;stroke-width:1;fill-opacity:0;" points="884,463 878,453 872,463"/><text style="font-weight:Normal; font-size: 12px; text-anchor: middle; font-family: arial,helvetica; fill: #333333;" y="469" x="863"/><text style="font-weight:Normal; font-size: 12px; text-anchor: start; font-family: arial,helvetica; fill: #333333;" y="495" x="682"/><text style="font-weight:Normal; font-size: 12px; text-anchor: middle; font-family: arial,helvetica; fill: #333333;" y="474" x="501"/></g><g><rect style="fill: #ffffff;fill-opacity: 1;stroke-opacity:0;stroke-width: 1;stroke:%stroke%;" rx="4" height="14" width="99" y="509" x="561"/><text style="font-weight:Normal; font-size: 12px; text-anchor: start; font-family: arial,helvetica; fill: #333333;" y="509" x="561"><tspan dy="11" x="561">changePassword()</tspan></text></g><g><path style="fill:none;stroke:#333333;stroke-width:1;" d="M 735 372 763 372 762 428 735 429"/><polyline style="fill:#ffffff;stroke:#333333;stroke-width:1;fill-opacity:0;" points="745,422 735,429 745,434"/><text style="font-weight:Normal; font-size: 12px; text-anchor: middle; font-family: arial,helvetica; fill: #333333;" y="442" x="750"/><text style="font-weight:Normal; font-size: 12px; text-anchor: start; font-family: arial,helvetica; fill: #333333;" y="400" x="762"/><text style="font-weight:Normal; font-size: 12px; text-anchor: middle; font-family: arial,helvetica; fill: #333333;" y="357" x="749"/></g><g><rect style="fill: #ffffff;fill-opacity: 1;stroke-opacity:0;stroke-width: 1;stroke:%stroke%;" rx="4" height="31" width="44" y="383" x="749"/><text style="font-weight:Normal; font-size: 12px; text-anchor: start; font-family: arial,helvetica; fill: #333333;" y="383" x="749"><tspan dy="11" x="749">submit</tspan><tspan dy="17" x="749">ERROR</tspan></text></g><g><path style="fill:none;stroke:#333333;stroke-width:1;" d="M 943 372 969 372 969 427 943 427"/><polyline style="fill:#ffffff;stroke:#333333;stroke-width:1;fill-opacity:0;" points="953,421 943,427 953,433"/><text style="font-weight:Normal; font-size: 12px; text-anchor: middle; font-family: arial,helvetica; fill: #333333;" y="442" x="959"/><text style="font-weight:Normal; font-size: 12px; text-anchor: start; font-family: arial,helvetica; fill: #333333;" y="399" x="969"/><text style="font-weight:Normal; font-size: 12px; text-anchor: middle; font-family: arial,helvetica; fill: #333333;" y="357" x="957"/></g><g><rect style="fill: #ffffff;fill-opacity: 1;stroke-opacity:0;stroke-width: 1;stroke:%stroke%;" rx="4" height="31" width="44" y="383" x="955"/><text style="font-weight:Normal; font-size: 12px; text-anchor: start; font-family: arial,helvetica; fill: #333333;" y="383" x="955"><tspan dy="11" x="955">submit</tspan><tspan dy="17" x="955">ERROR</tspan></text></g><g><path style="fill:none;stroke:#333333;stroke-width:1;" d="M 488 212 487 283"/><path style="fill:rgb(250,250,250);stroke:#333333;stroke-width:1;" d="M 488 212 481.8542 222.3068 487.7073 232.7825 493.8530 222.4758Z"/><text style="font-weight:Normal; font-size: 12px; text-anchor: middle; font-family: arial,helvetica; fill: #333333;" y="267" x="501"/><text style="font-weight:Normal; font-size: 12px; text-anchor: start; font-family: arial,helvetica; fill: #333333;" y="247" x="487"/><text style="font-weight:Normal; font-size: 12px; text-anchor: middle; font-family: arial,helvetica; fill: #333333;" y="225" x="502"/></g><g><path style="fill:none;stroke:#333333;stroke-width:1;" d="M 758 220 760 263 723 263 702 292"/><path style="fill:rgb(250,250,250);stroke:#333333;stroke-width:1;" d="M 758 220 752.4893 230.6599 758.9657 240.7622 764.4764 230.1023Z"/><text style="font-weight:Normal; font-size: 12px; text-anchor: middle; font-family: arial,helvetica; fill: #333333;" y="287" x="723"/><text style="font-weight:Normal; font-size: 12px; text-anchor: start; font-family: arial,helvetica; fill: #333333;" y="257" x="741"/><text style="font-weight:Normal; font-size: 12px; text-anchor: middle; font-family: arial,helvetica; fill: #333333;" y="232" x="772"/></g><g><path style="fill:none;stroke:#333333;stroke-width:1;" d="M 798 220 798 263 839 263 857 292"/><path style="fill:rgb(250,250,250);stroke:#333333;stroke-width:1;" d="M 798 220 792 230.3923 798 240.7846 804 230.3923Z"/><text style="font-weight:Normal; font-size: 12px; text-anchor: middle; font-family: arial,helvetica; fill: #333333;" y="271" x="860"/><text style="font-weight:Normal; font-size: 12px; text-anchor: start; font-family: arial,helvetica; fill: #333333;" y="257" x="818"/><text style="font-weight:Normal; font-size: 12px; text-anchor: middle; font-family: arial,helvetica; fill: #333333;" y="234" x="813"/></g><g><path style="fill:none;stroke:#333333;stroke-width:1;" d="M 700 165 554 165"/><path style="fill:rgb(250,250,250);stroke:#333333;stroke-width:1;" d="M 700 165 689.6077 159 679.2154 165 689.6077 171Z"/><text style="font-weight:Normal; font-size: 12px; text-anchor: middle; font-family: arial,helvetica; fill: #333333;" y="180" x="570"/><text style="font-weight:Normal; font-size: 12px; text-anchor: start; font-family: arial,helvetica; fill: #333333;" y="159" x="627"/><text style="font-weight:Normal; font-size: 12px; text-anchor: middle; font-family: arial,helvetica; fill: #333333;" y="180" x="686"/></g><g><path style="fill:none;stroke:#333333;stroke-width:1;" d="M 878 292 879 203 847 202"/><polyline style="fill:#ffffff;stroke:#333333;stroke-width:1;fill-opacity:0;" points="857,196 847,202 857,208"/><text style="font-weight:Normal; font-size: 12px; text-anchor: middle; font-family: arial,helvetica; fill: #333333;" y="216" x="862"/><text style="font-weight:Normal; font-size: 12px; text-anchor: start; font-family: arial,helvetica; fill: #333333;" y="191" x="879"/><text style="font-weight:Normal; font-size: 12px; text-anchor: middle; font-family: arial,helvetica; fill: #333333;" y="278" x="863"/></g><g><rect style="fill: #ffffff;fill-opacity: 1;stroke-opacity:0;stroke-width: 1;stroke:%stroke%;" rx="4" height="14" width="56" y="240" x="850"/><text style="font-weight:Normal; font-size: 12px; text-anchor: start; font-family: arial,helvetica; fill: #333333;" y="240" x="850"><tspan dy="11" x="850">submit OK</tspan></text></g><g><path style="fill:none;stroke:#333333;stroke-width:1;" d="M 671 292 672 200 700 200"/><polyline style="fill:#ffffff;stroke:#333333;stroke-width:1;fill-opacity:0;" points="689,206 700,200 689,194"/><text style="font-weight:Normal; font-size: 12px; text-anchor: middle; font-family: arial,helvetica; fill: #333333;" y="185" x="684"/><text style="font-weight:Normal; font-size: 12px; text-anchor: start; font-family: arial,helvetica; fill: #333333;" y="188" x="672"/><text style="font-weight:Normal; font-size: 12px; text-anchor: middle; font-family: arial,helvetica; fill: #333333;" y="278" x="656"/></g><g><rect style="fill: #ffffff;fill-opacity: 1;stroke-opacity:0;stroke-width: 1;stroke:%stroke%;" rx="4" height="14" width="56" y="240" x="643"/><text style="font-weight:Normal; font-size: 12px; text-anchor: start; font-family: arial,helvetica; fill: #333333;" y="240" x="643"><tspan dy="11" x="643">submit OK</tspan></text></g></svg>