<svg height="713" width="910" viewBox="64 194 910 713" style="background-color:transparent;" preserveAspectRatio="xMinYMin meet" xmlns:xlink="http://www.w3.org/1999/xlink" xmlns="http://www.w3.org/2000/svg"><g transform="matrix(1,0,0,1,-154,-16)"><rect style="fill: #ccccff;fill-opacity: 0;stroke-opacity:1;stroke-width: 2;stroke:#333333;" rx="2" height="89" width="116" y="257" x="430"/><text style="font-weight:Normal; font-size: 12px; text-anchor: middle; font-family: arial,helvetica; fill: #333333;" y="281" x="488">«screen»</text><text style="font-weight:bold; font-size: 12px; text-anchor: middle; font-family: arial,helvetica; fill: #333333;" y="298" x="488">UserHomePage</text><line style="stroke:#333333;stroke-width:1;stroke-dasharray:none;" y2="312" x2="545" y1="312" x1="431"/><line style="stroke:#333333;stroke-width:1;stroke-dasharray:none;" y2="329" x2="545" y1="329" x1="431"/></g><g><rect style="fill: #ccccff;fill-opacity: 0;stroke-opacity:1;stroke-width: 2;stroke:#333333;" rx="2" height="140" width="143" y="444" x="416"/><text style="font-weight:Normal; font-size: 12px; text-anchor: middle; font-family: arial,helvetica; fill: #333333;" y="468" x="487">«screen component»</text><text style="font-weight:bold; font-size: 12px; text-anchor: middle; font-family: arial,helvetica; fill: #333333;" y="485" x="487">Calendar</text><line style="stroke:#333333;stroke-width:1;stroke-dasharray:none;" y2="499" x2="558" y1="499" x1="417"/><line style="stroke:#333333;stroke-width:1;stroke-dasharray:none;" y2="516" x2="558" y1="516" x1="417"/><text style="font-weight:Normal; font-size: 12px; text-anchor: start; font-family: arial,helvetica; fill: #333333;" y="536" x="426">showDetails()</text><text style="font-weight:Normal; font-size: 12px; text-anchor: start; font-family: arial,helvetica; fill: #333333;" y="553" x="426">nextMonth()</text><text style="font-weight:Normal; font-size: 12px; text-anchor: start; font-family: arial,helvetica; fill: #333333;" y="570" x="426">previousMonth()</text></g><g><rect style="fill: #ccccff;fill-opacity: 0;stroke-opacity:1;stroke-width: 2;stroke:#333333;" rx="2" height="140" width="144" y="443" x="240"/><text style="font-weight:Normal; font-size: 12px; text-anchor: middle; font-family: arial,helvetica; fill: #333333;" y="467" x="312">«screen component»</text><text style="font-weight:bold; font-size: 12px; text-anchor: middle; font-family: arial,helvetica; fill: #333333;" y="484" x="312">Notifications</text><line style="stroke:#333333;stroke-width:1;stroke-dasharray:none;" y2="498" x2="383" y1="498" x1="241"/><text style="font-weight:Normal; font-size: 12px; text-anchor: start; font-family: arial,helvetica; fill: #333333;" y="518" x="250">notificationList</text><line style="stroke:#333333;stroke-width:1;stroke-dasharray:none;" y2="532" x2="383" y1="532" x1="241"/><text style="font-weight:Normal; font-size: 12px; text-anchor: start; font-family: arial,helvetica; fill: #333333;" y="552" x="250">showDetails()</text><text style="font-weight:Normal; font-size: 12px; text-anchor: start; font-family: arial,helvetica; fill: #333333;" y="569" x="250">showAllNotifications()</text></g><g transform="matrix(1,0,0,1,-143,-13)"><rect style="fill: #ccccff;fill-opacity: 0;stroke-opacity:1;stroke-width: 2;stroke:#333333;" rx="2" height="140" width="166" y="245" x="703"/><text style="font-weight:Normal; font-size: 12px; text-anchor: middle; font-family: arial,helvetica; fill: #333333;" y="269" x="786">«screen component»</text><text style="font-weight:bold; font-size: 12px; text-anchor: middle; font-family: arial,helvetica; fill: #333333;" y="286" x="786">NavigationBar</text><line style="stroke:#333333;stroke-width:1;stroke-dasharray:none;" y2="300" x2="868" y1="300" x1="704"/><line style="stroke:#333333;stroke-width:1;stroke-dasharray:none;" y2="317" x2="868" y1="317" x1="704"/><text style="font-weight:Normal; font-size: 12px; text-anchor: start; font-family: arial,helvetica; fill: #333333;" y="337" x="713">logOut()</text><text style="font-weight:Normal; font-size: 12px; text-anchor: start; font-family: arial,helvetica; fill: #333333;" y="354" x="713">showSettings()</text><text style="font-weight:Normal; font-size: 12px; text-anchor: start; font-family: arial,helvetica; fill: #333333;" y="371" x="713">returnToUserHomePage()</text></g><g transform="matrix(1,0,0,1,-138,-14)"><rect style="fill: #ccccff;fill-opacity: 0;stroke-opacity:1;stroke-width: 2;stroke:#333333;" rx="2" height="89" width="122" y="218" x="975"/><text style="font-weight:Normal; font-size: 12px; text-anchor: middle; font-family: arial,helvetica; fill: #333333;" y="242" x="1036">«screen»</text><text style="font-weight:bold; font-size: 12px; text-anchor: middle; font-family: arial,helvetica; fill: #333333;" y="259" x="1036">GuestHomePage</text><line style="stroke:#333333;stroke-width:1;stroke-dasharray:none;" y2="273" x2="1096" y1="273" x1="976"/><line style="stroke:#333333;stroke-width:1;stroke-dasharray:none;" y2="290" x2="1096" y1="290" x1="976"/></g><g transform="matrix(1,0,0,1,-138,-11)"><rect style="fill: #ccccff;fill-opacity: 0;stroke-opacity:1;stroke-width: 2;stroke:#333333;" rx="2" height="89" width="99" y="327" x="987"/><text style="font-weight:Normal; font-size: 12px; text-anchor: middle; font-family: arial,helvetica; fill: #333333;" y="351" x="1036">«screen»</text><text style="font-weight:bold; font-size: 12px; text-anchor: middle; font-family: arial,helvetica; fill: #333333;" y="368" x="1036">UserSettings</text><line style="stroke:#333333;stroke-width:1;stroke-dasharray:none;" y2="382" x2="1085" y1="382" x1="988"/><line style="stroke:#333333;stroke-width:1;stroke-dasharray:none;" y2="399" x2="1085" y1="399" x1="988"/></g><g transform="matrix(1,0,0,1,0,0)"><path style="fill:none;stroke:#333333;stroke-width:1;" d="M 334 332 335 421 458 421 478 442"/><path style="fill:rgb(250,250,250);stroke:#333333;stroke-width:1;" d="M 334 332 328.1171 342.4591 334.2335 352.7833 340.1164 342.3242Z"/><text style="font-weight:Normal; font-size: 12px; text-anchor: middle; font-family: arial,helvetica; fill: #333333;" y="420" x="476"/><text style="font-weight:Normal; font-size: 12px; text-anchor: start; font-family: arial,helvetica; fill: #333333;" y="415" x="396"/><text style="font-weight:Normal; font-size: 12px; text-anchor: middle; font-family: arial,helvetica; fill: #333333;" y="344" x="348"/></g><g><path style="fill:none;stroke:#333333;stroke-width:1;" d="M 387 303 558 302"/><path style="fill:rgb(250,250,250);stroke:#333333;stroke-width:1;" d="M 387 303 397.4272 308.9391 407.7843 302.8785 397.3570 296.9393Z"/><text style="font-weight:Normal; font-size: 12px; text-anchor: middle; font-family: arial,helvetica; fill: #333333;" y="288" x="542"/><text style="font-weight:Normal; font-size: 12px; text-anchor: start; font-family: arial,helvetica; fill: #333333;" y="296" x="472"/><text style="font-weight:Normal; font-size: 12px; text-anchor: middle; font-family: arial,helvetica; fill: #333333;" y="288" x="399"/></g><g transform="matrix(1,0,0,1,0,0)"><path style="fill:none;stroke:#333333;stroke-width:1;" d="M 728 302 769 258 835 258"/><polyline style="fill:#ffffff;stroke:#333333;stroke-width:1;fill-opacity:0;" points="824,264 835,258 824,252"/><text style="font-weight:Normal; font-size: 12px; text-anchor: middle; font-family: arial,helvetica; fill: #333333;" y="243" x="819"/><text style="font-weight:Normal; font-size: 12px; text-anchor: start; font-family: arial,helvetica; fill: #333333;" y="246" x="769"/><text style="font-weight:Normal; font-size: 12px; text-anchor: middle; font-family: arial,helvetica; fill: #333333;" y="281" x="726"/></g><g transform="matrix(1,0,0,1,0,0)"><path style="fill:none;stroke:#333333;stroke-width:1;" d="M 728 302 769 343 847 343"/><polyline style="fill:#ffffff;stroke:#333333;stroke-width:1;fill-opacity:0;" points="836,349 847,343 836,337"/><text style="font-weight:Normal; font-size: 12px; text-anchor: middle; font-family: arial,helvetica; fill: #333333;" y="328" x="831"/><text style="font-weight:Normal; font-size: 12px; text-anchor: start; font-family: arial,helvetica; fill: #333333;" y="331" x="769"/><text style="font-weight:Normal; font-size: 12px; text-anchor: middle; font-family: arial,helvetica; fill: #333333;" y="300" x="747"/></g><g><rect style="fill: #ccccff;fill-opacity: 0;stroke-opacity:1;stroke-width: 2;stroke:#333333;" rx="2" height="140" width="183" y="444" x="593"/><text style="font-weight:Normal; font-size: 12px; text-anchor: middle; font-family: arial,helvetica; fill: #333333;" y="468" x="684">«screen component»</text><text style="font-weight:bold; font-size: 12px; text-anchor: middle; font-family: arial,helvetica; fill: #333333;" y="485" x="684">EventOptions</text><line style="stroke:#333333;stroke-width:1;stroke-dasharray:none;" y2="499" x2="775" y1="499" x1="594"/><line style="stroke:#333333;stroke-width:1;stroke-dasharray:none;" y2="516" x2="775" y1="516" x1="594"/><text style="font-weight:Normal; font-size: 12px; text-anchor: start; font-family: arial,helvetica; fill: #333333;" y="536" x="603">manageOwnEvents()</text><text style="font-weight:Normal; font-size: 12px; text-anchor: start; font-family: arial,helvetica; fill: #333333;" y="553" x="603">manageParticipatingEvents()</text><text style="font-weight:Normal; font-size: 12px; text-anchor: start; font-family: arial,helvetica; fill: #333333;" y="570" x="603">createNewEvent()</text></g><g><path style="fill:none;stroke:#333333;stroke-width:1;" d="M 362 332 363 400 641 400 684 442"/><path style="fill:rgb(250,250,250);stroke:#333333;stroke-width:1;" d="M 362 332 356.1535 342.4794 362.3056 352.7824 368.1522 342.3030Z"/><text style="font-weight:Normal; font-size: 12px; text-anchor: middle; font-family: arial,helvetica; fill: #333333;" y="420" x="682"/><text style="font-weight:Normal; font-size: 12px; text-anchor: start; font-family: arial,helvetica; fill: #333333;" y="394" x="502"/><text style="font-weight:Normal; font-size: 12px; text-anchor: middle; font-family: arial,helvetica; fill: #333333;" y="344" x="376"/></g><g transform="matrix(1,0,0,1,0,0)"><rect style="fill: #ffffff;fill-opacity: 1;stroke-opacity:0;stroke-width: 1;stroke:%stroke%;" rx="4" height="14" width="42" y="240" x="780"/><text style="font-weight:Normal; font-size: 12px; text-anchor: start; font-family: arial,helvetica; fill: #333333;" y="240" x="780"><tspan dy="11" x="780">logOut()</tspan></text></g><g transform="matrix(1,0,0,1,0,0)"><rect style="fill: #ffffff;fill-opacity: 1;stroke-opacity:0;stroke-width: 1;stroke:%stroke%;" rx="4" height="14" width="78" y="348" x="765"/><text style="font-weight:Normal; font-size: 12px; text-anchor: start; font-family: arial,helvetica; fill: #333333;" y="348" x="765"><tspan dy="11" x="765">showSettings()</tspan></text></g><g><rect style="fill: #ccccff;fill-opacity: 0;stroke-opacity:1;stroke-width: 2;stroke:#333333;" rx="2" height="89" width="97" y="661" x="775"/><text style="font-weight:Normal; font-size: 12px; text-anchor: middle; font-family: arial,helvetica; fill: #333333;" y="685" x="823">«input form»</text><text style="font-weight:bold; font-size: 12px; text-anchor: middle; font-family: arial,helvetica; fill: #333333;" y="702" x="823">EventForm</text><line style="stroke:#333333;stroke-width:1;stroke-dasharray:none;" y2="716" x2="871" y1="716" x1="776"/><line style="stroke:#333333;stroke-width:1;stroke-dasharray:none;" y2="733" x2="871" y1="733" x1="776"/></g><g><rect style="fill: #ccccff;fill-opacity: 0;stroke-opacity:1;stroke-width: 2;stroke:#333333;" rx="2" height="89" width="143" y="662" x="566"/><text style="font-weight:Normal; font-size: 12px; text-anchor: middle; font-family: arial,helvetica; fill: #333333;" y="686" x="637">«screen component»</text><text style="font-weight:bold; font-size: 12px; text-anchor: middle; font-family: arial,helvetica; fill: #333333;" y="703" x="637">EventList</text><line style="stroke:#333333;stroke-width:1;stroke-dasharray:none;" y2="717" x2="708" y1="717" x1="567"/><line style="stroke:#333333;stroke-width:1;stroke-dasharray:none;" y2="734" x2="708" y1="734" x1="567"/></g><g><path style="fill:none;stroke:#333333;stroke-width:1;" d="M 707 586 707 602 824 602 823 659"/><polyline style="fill:#ffffff;stroke:#333333;stroke-width:1;fill-opacity:0;" points="817,648 823,659 829,648"/><text style="font-weight:Normal; font-size: 12px; text-anchor: middle; font-family: arial,helvetica; fill: #333333;" y="643" x="837"/><text style="font-weight:Normal; font-size: 12px; text-anchor: start; font-family: arial,helvetica; fill: #333333;" y="596" x="765"/><text style="font-weight:Normal; font-size: 12px; text-anchor: middle; font-family: arial,helvetica; fill: #333333;" y="600" x="722"/></g><g><path style="fill:none;stroke:#333333;stroke-width:1;" d="M 684 586 684 602 637 602 637 660"/><polyline style="fill:#ffffff;stroke:#333333;stroke-width:1;fill-opacity:0;" points="631,649 637,660 643,649"/><text style="font-weight:Normal; font-size: 12px; text-anchor: middle; font-family: arial,helvetica; fill: #333333;" y="644" x="652"/><text style="font-weight:Normal; font-size: 12px; text-anchor: start; font-family: arial,helvetica; fill: #333333;" y="596" x="660"/><text style="font-weight:Normal; font-size: 12px; text-anchor: middle; font-family: arial,helvetica; fill: #333333;" y="600" x="699"/></g><g><rect style="fill: #ffffff;fill-opacity: 1;stroke-opacity:0;stroke-width: 1;stroke:%stroke%;" rx="4" height="31" width="150" y="612" x="637"/><text style="font-weight:Normal; font-size: 12px; text-anchor: start; font-family: arial,helvetica; fill: #333333;" y="612" x="637"><tspan dy="11" x="637">manageOwnEvents() /</tspan><tspan dy="17" x="637">manageParticipatingEvents()</tspan></text></g><g><rect style="fill: #ffffff;fill-opacity: 1;stroke-opacity:0;stroke-width: 1;stroke:%stroke%;" rx="4" height="14" width="93" y="621" x="821"/><text style="font-weight:Normal; font-size: 12px; text-anchor: start; font-family: arial,helvetica; fill: #333333;" y="621" x="821"><tspan dy="11" x="821">createNewEvent()</tspan></text></g><g><path style="fill:none;stroke:#333333;stroke-width:1;" d="M 528 586 528 670 564 706"/><polyline style="fill:#ffffff;stroke:#333333;stroke-width:1;fill-opacity:0;" points="552,702 564,706 560,694"/><text style="font-weight:Normal; font-size: 12px; text-anchor: middle; font-family: arial,helvetica; fill: #333333;" y="684" x="562"/><text style="font-weight:Normal; font-size: 12px; text-anchor: start; font-family: arial,helvetica; fill: #333333;" y="658" x="528"/><text style="font-weight:Normal; font-size: 12px; text-anchor: middle; font-family: arial,helvetica; fill: #333333;" y="600" x="543"/></g><g><rect style="fill: #ffffff;fill-opacity: 1;stroke-opacity:0;stroke-width: 1;stroke:%stroke%;" rx="4" height="14" width="72" y="622" x="520"/><text style="font-weight:Normal; font-size: 12px; text-anchor: start; font-family: arial,helvetica; fill: #333333;" y="622" x="520"><tspan dy="11" x="520">showDetails()</tspan></text></g><g><path style="fill:none;stroke:#333333;stroke-width:1;" d="M 481 586 481 645 439 645 439 586"/><polyline style="fill:#ffffff;stroke:#333333;stroke-width:1;fill-opacity:0;" points="445,596 439,586 433,596"/><text style="font-weight:Normal; font-size: 12px; text-anchor: middle; font-family: arial,helvetica; fill: #333333;" y="602" x="424"/><text style="font-weight:Normal; font-size: 12px; text-anchor: start; font-family: arial,helvetica; fill: #333333;" y="639" x="460"/><text style="font-weight:Normal; font-size: 12px; text-anchor: middle; font-family: arial,helvetica; fill: #333333;" y="600" x="496"/></g><g><rect style="fill: #ffffff;fill-opacity: 1;stroke-opacity:0;stroke-width: 1;stroke:%stroke%;" rx="4" height="31" width="83" y="649" x="437"/><text style="font-weight:Normal; font-size: 12px; text-anchor: start; font-family: arial,helvetica; fill: #333333;" y="649" x="437"><tspan dy="11" x="437">nextMonth() /</tspan><tspan dy="17" x="437">previousMonth()</tspan></text></g><g><rect style="fill: #ccccff;fill-opacity: 0;stroke-opacity:1;stroke-width: 2;stroke:#333333;" rx="2" height="89" width="96" y="803" x="682"/><text style="font-weight:Normal; font-size: 12px; text-anchor: middle; font-family: arial,helvetica; fill: #333333;" y="827" x="730">«screen»</text><text style="font-weight:bold; font-size: 12px; text-anchor: middle; font-family: arial,helvetica; fill: #333333;" y="844" x="730">EventsPage</text><line style="stroke:#333333;stroke-width:1;stroke-dasharray:none;" y2="858" x2="777" y1="858" x1="683"/><line style="stroke:#333333;stroke-width:1;stroke-dasharray:none;" y2="875" x2="777" y1="875" x1="683"/></g><g><path style="fill:none;stroke:#333333;stroke-width:1;" d="M 713 801 714 772 650 772 637 753"/><path style="fill:rgb(250,250,250);stroke:#333333;stroke-width:1;" d="M 713 801 719.3546 790.8206 713.7163 780.2277 707.3617 790.4071Z"/><text style="font-weight:Normal; font-size: 12px; text-anchor: middle; font-family: arial,helvetica; fill: #333333;" y="774" x="634"/><text style="font-weight:Normal; font-size: 12px; text-anchor: start; font-family: arial,helvetica; fill: #333333;" y="766" x="682"/><text style="font-weight:Normal; font-size: 12px; text-anchor: middle; font-family: arial,helvetica; fill: #333333;" y="787" x="698"/></g><g><path style="fill:none;stroke:#333333;stroke-width:1;" d="M 750 801 750 772 810 772 823 752"/><path style="fill:rgb(250,250,250);stroke:#333333;stroke-width:1;" d="M 750 801 756 790.6077 750 780.2154 744 790.6077Z"/><text style="font-weight:Normal; font-size: 12px; text-anchor: middle; font-family: arial,helvetica; fill: #333333;" y="757" x="802"/><text style="font-weight:Normal; font-size: 12px; text-anchor: start; font-family: arial,helvetica; fill: #333333;" y="766" x="780"/><text style="font-weight:Normal; font-size: 12px; text-anchor: middle; font-family: arial,helvetica; fill: #333333;" y="787" x="735"/></g><g><rect style="fill: #ccccff;fill-opacity: 0;stroke-opacity:1;stroke-width: 2;stroke:#333333;" rx="2" height="89" width="143" y="661" x="263"/><text style="font-weight:Normal; font-size: 12px; text-anchor: middle; font-family: arial,helvetica; fill: #333333;" y="685" x="334">«screen component»</text><text style="font-weight:bold; font-size: 12px; text-anchor: middle; font-family: arial,helvetica; fill: #333333;" y="702" x="334">NotificationDetails</text><line style="stroke:#333333;stroke-width:1;stroke-dasharray:none;" y2="716" x2="405" y1="716" x1="264"/><line style="stroke:#333333;stroke-width:1;stroke-dasharray:none;" y2="733" x2="405" y1="733" x1="264"/></g><g><rect style="fill: #ccccff;fill-opacity: 0;stroke-opacity:1;stroke-width: 2;stroke:#333333;" rx="2" height="89" width="143" y="661" x="79"/><text style="font-weight:Normal; font-size: 12px; text-anchor: middle; font-family: arial,helvetica; fill: #333333;" y="685" x="150">«screen component»</text><text style="font-weight:bold; font-size: 12px; text-anchor: middle; font-family: arial,helvetica; fill: #333333;" y="702" x="150">NotificationList</text><line style="stroke:#333333;stroke-width:1;stroke-dasharray:none;" y2="716" x2="221" y1="716" x1="80"/><line style="stroke:#333333;stroke-width:1;stroke-dasharray:none;" y2="733" x2="221" y1="733" x1="80"/></g><g><path style="fill:none;stroke:#333333;stroke-width:1;" d="M 318 585 318 600 335 600 334 659"/><polyline style="fill:#ffffff;stroke:#333333;stroke-width:1;fill-opacity:0;" points="328,648 334,659 340,648"/><text style="font-weight:Normal; font-size: 12px; text-anchor: middle; font-family: arial,helvetica; fill: #333333;" y="643" x="348"/><text style="font-weight:Normal; font-size: 12px; text-anchor: start; font-family: arial,helvetica; fill: #333333;" y="594" x="326"/><text style="font-weight:Normal; font-size: 12px; text-anchor: middle; font-family: arial,helvetica; fill: #333333;" y="599" x="333"/></g><g><path style="fill:none;stroke:#333333;stroke-width:1;" d="M 284 585 284 601 148 601 149 659"/><polyline style="fill:#ffffff;stroke:#333333;stroke-width:1;fill-opacity:0;" points="142,648 149,659 154,648"/><text style="font-weight:Normal; font-size: 12px; text-anchor: middle; font-family: arial,helvetica; fill: #333333;" y="643" x="162"/><text style="font-weight:Normal; font-size: 12px; text-anchor: start; font-family: arial,helvetica; fill: #333333;" y="595" x="216"/><text style="font-weight:Normal; font-size: 12px; text-anchor: middle; font-family: arial,helvetica; fill: #333333;" y="599" x="299"/></g><g><rect style="fill: #ffffff;fill-opacity: 1;stroke-opacity:0;stroke-width: 1;stroke:%stroke%;" rx="4" height="14" width="72" y="620" x="326"/><text style="font-weight:Normal; font-size: 12px; text-anchor: start; font-family: arial,helvetica; fill: #333333;" y="620" x="326"><tspan dy="11" x="326">showDetails()</tspan></text></g><g><rect style="fill: #ccccff;fill-opacity: 0;stroke-opacity:1;stroke-width: 2;stroke:#333333;" rx="2" height="89" width="123" y="803" x="186"/><text style="font-weight:Normal; font-size: 12px; text-anchor: middle; font-family: arial,helvetica; fill: #333333;" y="827" x="247">«screen»</text><text style="font-weight:bold; font-size: 12px; text-anchor: middle; font-family: arial,helvetica; fill: #333333;" y="844" x="247">NotificationsPage</text><line style="stroke:#333333;stroke-width:1;stroke-dasharray:none;" y2="858" x2="308" y1="858" x1="187"/><line style="stroke:#333333;stroke-width:1;stroke-dasharray:none;" y2="875" x2="308" y1="875" x1="187"/></g><g><path style="fill:none;stroke:#333333;stroke-width:1;" d="M 223 801 222 772 161 772 150 752"/><path style="fill:rgb(250,250,250);stroke:#333333;stroke-width:1;" d="M 223 801 228.6383 790.4071 222.2837 780.2277 216.6454 790.8206Z"/><text style="font-weight:Normal; font-size: 12px; text-anchor: middle; font-family: arial,helvetica; fill: #333333;" y="773" x="144"/><text style="font-weight:Normal; font-size: 12px; text-anchor: start; font-family: arial,helvetica; fill: #333333;" y="766" x="191"/><text style="font-weight:Normal; font-size: 12px; text-anchor: middle; font-family: arial,helvetica; fill: #333333;" y="788" x="208"/></g><g><path style="fill:none;stroke:#333333;stroke-width:1;" d="M 261 801 261 772 321 772 334 752"/><path style="fill:rgb(250,250,250);stroke:#333333;stroke-width:1;" d="M 261 801 267 790.6077 261 780.2154 255 790.6077Z"/><text style="font-weight:Normal; font-size: 12px; text-anchor: middle; font-family: arial,helvetica; fill: #333333;" y="757" x="313"/><text style="font-weight:Normal; font-size: 12px; text-anchor: start; font-family: arial,helvetica; fill: #333333;" y="766" x="291"/><text style="font-weight:Normal; font-size: 12px; text-anchor: middle; font-family: arial,helvetica; fill: #333333;" y="787" x="246"/></g><g><rect style="fill: #ffffff;fill-opacity: 1;stroke-opacity:0;stroke-width: 1;stroke:%stroke%;" rx="4" height="14" width="111" y="621" x="141"/><text style="font-weight:Normal; font-size: 12px; text-anchor: start; font-family: arial,helvetica; fill: #333333;" y="621" x="141"><tspan dy="11" x="141">showAllNofitications()</tspan></text></g><g><path style="fill:none;stroke:#333333;stroke-width:1;" d="M 311 332 310 441"/><path style="fill:rgb(250,250,250);stroke:#333333;stroke-width:1;" d="M 311 332 304.9049 342.3368 310.8093 352.7837 316.9044 342.4469Z"/><text style="font-weight:Normal; font-size: 12px; text-anchor: middle; font-family: arial,helvetica; fill: #333333;" y="425" x="324"/><text style="font-weight:Normal; font-size: 12px; text-anchor: start; font-family: arial,helvetica; fill: #333333;" y="386" x="310"/><text style="font-weight:Normal; font-size: 12px; text-anchor: middle; font-family: arial,helvetica; fill: #333333;" y="345" x="325"/></g><g transform="matrix(1,0,0,1,0,0)"><path style="fill:none;stroke:#333333;stroke-width:1;" d="M 558 270 394 271"/><polyline style="fill:#ffffff;stroke:#333333;stroke-width:1;fill-opacity:0;" points="404,264 394,271 404,276"/><text style="font-weight:Normal; font-size: 12px; text-anchor: middle; font-family: arial,helvetica; fill: #333333;" y="284" x="409"/><text style="font-weight:Normal; font-size: 12px; text-anchor: start; font-family: arial,helvetica; fill: #333333;" y="270" x="476"/><text style="font-weight:Normal; font-size: 12px; text-anchor: middle; font-family: arial,helvetica; fill: #333333;" y="284" x="545"/></g><g transform="matrix(1,0,0,1,15,-2)"><rect style="fill: #ffffff;fill-opacity: 1;stroke-opacity:0;stroke-width: 1;stroke:%stroke%;" rx="4" height="14" width="133" y="252" x="397"/><text style="font-weight:Normal; font-size: 12px; text-anchor: start; font-family: arial,helvetica; fill: #333333;" y="252" x="397"><tspan dy="11" x="397">returnToUserHomePage()</tspan></text></g></svg>